0
SECTION
2
HEADER
9
$INSUNITS
70
4
9
$ACADVER
1
AC1014
9
$HANDSEED
5
FFFF
0
ENDSEC
0
SECTION
2
TABLES
0
TABLE
2
VPORT
5
8
100
AcDbSymbolTable
0
ENDTAB
0
TABLE
2
LTYPE
5
5
100
AcDbSymbolTable
0
LTYPE
5
14
100
AcDbSymbolTableRecord
100
AcDbLinetypeTableRecord
2
BYBLOCK
70
0
0
LTYPE
5
15
100
AcDbSymbolTableRecord
100
AcDbLinetypeTableRecord
2
BYLAYER
70
0
0
ENDTAB
0
TABLE
2
LAYER
5
2
100
AcDbSymbolTable
70
2
0
LAYER
5
50
100
AcDbSymbolTableRecord
100
AcDbLayerTableRecord
2
0
70
0
6
CONTINUOUS
0
ENDTAB
0
TABLE
2
STYLE
5
3
100
AcDbSymbolTable
70
1
0
STYLE
5
11
100
AcDbSymbolTableRecord
100
AcDbTextStyleTableRecord
2
STANDARD
70
0
0
ENDTAB
0
TABLE
2
VIEW
5
6
100
AcDbSymbolTable
70
0
0
ENDTAB
0
TABLE
2
UCS
5
7
100
AcDbSymbolTable
70
0
0
ENDTAB
0
TABLE
2
APPID
5
9
100
AcDbSymbolTable
70
2
0
APPID
5
12
100
AcDbSymbolTableRecord
100
AcDbRegAppTableRecord
2
ACAD
70
0
0
ENDTAB
0
TABLE
2
DIMSTYLE
5
A
100
AcDbSymbolTable
70
1
0
ENDTAB
0
TABLE
2
BLOCK_RECORD
5
1
100
AcDbSymbolTable
70
1
0
BLOCK_RECORD
5
1F
100
AcDbSymbolTableRecord
100
AcDbBlockTableRecord
2
*MODEL_SPACE
0
BLOCK_RECORD
5
1B
100
AcDbSymbolTableRecord
100
AcDbBlockTableRecord
2
*PAPER_SPACE
0
ENDTAB
0
ENDSEC
0
SECTION
2
BLOCKS
0
BLOCK
5
20
100
AcDbEntity
100
AcDbBlockBegin
2
*MODEL_SPACE
0
ENDBLK
5
21
100
AcDbEntity
100
AcDbBlockEnd
0
BLOCK
5
1C
100
AcDbEntity
100
AcDbBlockBegin
2
*PAPER_SPACE
0
ENDBLK
5
1D
100
AcDbEntity
100
AcDbBlockEnd
0
ENDSEC
0
SECTION
2
ENTITIES
0
LWPOLYLINE
5
100
100
AcDbEntity
8
0
100
AcDbPolyline
90
8
70
1
43
0.0
10
-356
20
-199.99999999999994
42
-0.4142135623731002
10
-360
20
-196
10
-360
20
-123.99999999999999
42
-0.41421356237309509
10
-356
20
-120
10
-284
20
-119.99999999999997
42
-0.4142135623730977
10
-280
20
-123.99999999999999
10
-280
20
-196
42
-0.41421356237308465
10
-284
20
-200
0
LWPOLYLINE
5
101
100
AcDbEntity
8
0
100
AcDbPolyline
90
32
70
1
43
0.0
10
-295.60000000000002
20
-134.39999999999998
10
-310
20
-134.39999999999998
10
-310
20
-135
10
-313
20
-138
10
-327
20
-138
10
-330
20
-135
10
-330
20
-134.39999999999998
10
-344.43657147416894
20
-134.39999999999998
10
-355.60000000000002
20
-145.47140707620281
10
-355.59999999999991
20
-150
10
-355
20
-150
10
-352
20
-153
10
-352
20
-167
10
-355
20
-170
10
-355.60000000000002
20
-170
10
-355.60000000000002
20
-174.39999999999998
10
-344.39999999999998
20
-185.60000000000002
10
-330
20
-185.60000000000002
10
-330
20
-185
10
-327
20
-182
10
-313
20
-182
10
-310
20
-185
10
-310
20
-185.60000000000002
10
-295.60000000000002
20
-185.60000000000002
10
-284.39999999999998
20
-174.39999999999998
10
-284.39999999999998
20
-170
10
-285
20
-170
10
-288
20
-167
10
-288
20
-153
10
-285
20
-150
10
-284.39999999999998
20
-150
10
-284.39999999999998
20
-145.47140707620281
0
LWPOLYLINE
5
102
100
AcDbEntity
8
0
100
AcDbPolyline
90
4
70
1
43
0.0
10
-295.00000439584255
20
-190.00000104308128
10
-345.00000514090061
20
-190.00000104308128
42
0.99999999999999989
10
-345.00000514090061
20
-196.00000113248825
10
-295.00000439584255
20
-196.00000113248825
42
0.99999999999999989
0
LWPOLYLINE
5
103
100
AcDbEntity
8
0
100
AcDbPolyline
90
4
70
1
43
0.0
10
-295.00000439584255
20
-124.00000005960462
10
-345.00000514090061
20
-124.00000005960459
42
0.99999999999999989
10
-345.00000514090061
20
-130.00000014901161
10
-295.00000439584255
20
-130.00000014901164
42
0.99999999999999989
0
CIRCLE
5
104
100
AcDbEntity
8
0
100
AcDbCircle
10
-353.29999999999995
20
-136.69999999999999
30
0
40
1.4000000000000057
210
0
220
0
230
1
0
CIRCLE
5
105
100
AcDbEntity
8
0
100
AcDbCircle
10
-286.70000000000005
20
-183.30000000000001
30
0
40
1.4000000000000057
210
0
220
0
230
1
0
CIRCLE
5
106
100
AcDbEntity
8
0
100
AcDbCircle
10
-286.70000000000005
20
-136.69999999999999
30
0
40
1.4000000000000057
210
0
220
0
230
1
0
CIRCLE
5
107
100
AcDbEntity
8
0
100
AcDbCircle
10
-353.29999999999995
20
-183.30000000000001
30
0
40
1.4000000000000057
210
0
220
0
230
1
0
CIRCLE
5
108
100
AcDbEntity
8
0
100
AcDbCircle
10
-355.00000581145281
20
-125.00000014901167
30
0
40
1.7999999999999972
210
0
220
0
230
1
0
CIRCLE
5
109
100
AcDbEntity
8
0
100
AcDbCircle
10
-285.00000156462193
20
-194.99999858438969
30
0
40
1.7999999999999972
210
0
220
0
230
1
0
CIRCLE
5
110
100
AcDbEntity
8
0
100
AcDbCircle
10
-355.00000581145281
20
-195.00000104308126
30
0
40
1.7999999999999972
210
0
220
0
230
1
0
CIRCLE
5
111
100
AcDbEntity
8
0
100
AcDbCircle
10
-285.00000491738325
20
-125.00000014901167
30
0
40
1.7999999999999972
210
0
220
0
230
1
0
LWPOLYLINE
5
112
100
AcDbEntity
8
0
100
AcDbPolyline
90
8
70
1
43
0.0
10
-353
20
-185
10
-287
20
-185
42
0.41421356237309509
10
-285
20
-183
10
-285
20
-137
42
0.41421356237309509
10
-287
20
-135
10
-353
20
-135
42
0.41421356237308982
10
-355
20
-137
10
-355
20
-183
42
0.41421356237308982
0
CIRCLE
5
113
100
AcDbEntity
8
0
100
AcDbCircle
10
-286.70000000000005
20
-183.30000000000001
30
0
40
1.2999999999999901
210
0
220
0
230
1
0
CIRCLE
5
114
100
AcDbEntity
8
0
100
AcDbCircle
10
-286.70000000000005
20
-136.69999999999999
30
0
40
1.3000000000000014
210
0
220
0
230
1
0
CIRCLE
5
115
100
AcDbEntity
8
0
100
AcDbCircle
10
-353.29999999999995
20
-136.69999999999999
30
0
40
1.3000000000000078
210
0
220
0
230
1
0
CIRCLE
5
116
100
AcDbEntity
8
0
100
AcDbCircle
10
-353.29999999999995
20
-183.30000000000001
30
0
40
1.3000000000000256
210
0
220
0
230
1
0
ENDSEC
0
SECTION
2
OBJECTS
0
DICTIONARY
5
C
100
AcDbDictionary
3
ACAD_GROUP
350
D
3
ACAD_MLINESTYLE
350
17
0
DICTIONARY
5
D
100
AcDbDictionary
0
DICTIONARY
5
1A
330
C
100
AcDbDictionary
0
DICTIONARY
5
17
100
AcDbDictionary
0
ENDSEC
0
EOF
