M48
; DRILL file {KiCad (6.0.1-0)} date 2022 May 03, Tuesday 14:17:41
; FORMAT={-:-/ absolute / inch / decimal}
; #@! TF.CreationDate,2022-05-03T14:17:41+09:00
; #@! TF.GenerationSoftware,Kicad,Pcbnew,(6.0.1-0)
; #@! TF.FileFunction,Plated,1,2,PTH
FMAT,2
INCH
; #@! TA.AperFunction,Plated,PTH,ViaDrill
T1C0.0157
; #@! TA.AperFunction,Plated,PTH,ComponentDrill
T2C0.0315
; #@! TA.AperFunction,Plated,PTH,ComponentDrill
T3C0.0354
; #@! TA.AperFunction,Plated,PTH,ComponentDrill
T4C0.0394
; #@! TA.AperFunction,Plated,PTH,ComponentDrill
T5C0.0512
%
G90
G05
T1
X5.0715Y-3.4111
X5.2Y-3.1
T2
X4.3Y-3.2
X4.3Y-3.4
X4.3Y-3.8
X4.3984Y-3.2
X4.5Y-3.4
X4.5Y-3.8
X4.7Y-2.9
X4.7Y-3.1
X4.7Y-3.4
X4.7Y-3.8
X4.8Y-4.1
X4.9Y-2.7
X4.9504Y-3.2496
X4.9504Y-3.5496
X4.9984Y-2.7
X5.0504Y-3.2496
X5.0504Y-3.5496
X5.1Y-2.9
X5.1Y-3.1
X5.1016Y-3.8
X5.1504Y-3.2496
X5.1504Y-3.5496
X5.2Y-3.8
X5.2Y-4.1
X5.2504Y-3.2496
X5.2504Y-3.5496
X5.7Y-2.8
X5.7Y-4.0
X5.7984Y-2.8
X5.7984Y-4.0
X5.9504Y-3.2496
X5.9504Y-3.5496
X6.0504Y-3.2496
X6.0504Y-3.5496
X6.1Y-3.8
X6.1016Y-2.9
X6.1504Y-3.2496
X6.1504Y-3.5496
X6.2Y-2.9
X6.2504Y-3.2496
X6.2504Y-3.5496
X6.4016Y-3.0
X6.5Y-3.0
X6.5Y-3.3
X6.5Y-3.3984
X6.5Y-3.8
T3
X5.3Y-2.7
X5.3Y-2.8
T4
X4.3Y-4.1
X4.4Y-4.1
X5.5031Y-3.3
X5.6016Y-3.1031
X5.7Y-3.3
X6.4Y-2.7
X6.4Y-4.1
X6.5Y-2.7
X6.5Y-4.1
T5
X4.4Y-2.7
X4.4Y-2.9
T0
M30
