%TF.GenerationSoftware,KiCad,Pcbnew,(6.99.0-1870-g5c4f49351d)*%
%TF.CreationDate,2022-05-12T17:00:07+09:00*%
%TF.ProjectId,mic_tester,6d69635f-7465-4737-9465-722e6b696361,rev?*%
%TF.SameCoordinates,Original*%
%TF.FileFunction,Legend,Top*%
%TF.FilePolarity,Positive*%
%FSLAX46Y46*%
G04 Gerber Fmt 4.6, Leading zero omitted, Abs format (unit mm)*
G04 Created by KiCad (PCBNEW (6.99.0-1870-g5c4f49351d)) date 2022-05-12 17:00:07*
%MOMM*%
%LPD*%
G01*
G04 APERTURE LIST*
%ADD10C,0.150000*%
%ADD11C,0.300000*%
%ADD12C,0.120000*%
G04 APERTURE END LIST*
D10*
X159440952Y-106999761D02*
X159583809Y-107047380D01*
X159583809Y-107047380D02*
X159821904Y-107047380D01*
X159821904Y-107047380D02*
X159917142Y-106999761D01*
X159917142Y-106999761D02*
X159964761Y-106952142D01*
X159964761Y-106952142D02*
X160012380Y-106856904D01*
X160012380Y-106856904D02*
X160012380Y-106761666D01*
X160012380Y-106761666D02*
X159964761Y-106666428D01*
X159964761Y-106666428D02*
X159917142Y-106618809D01*
X159917142Y-106618809D02*
X159821904Y-106571190D01*
X159821904Y-106571190D02*
X159631428Y-106523571D01*
X159631428Y-106523571D02*
X159536190Y-106475952D01*
X159536190Y-106475952D02*
X159488571Y-106428333D01*
X159488571Y-106428333D02*
X159440952Y-106333095D01*
X159440952Y-106333095D02*
X159440952Y-106237857D01*
X159440952Y-106237857D02*
X159488571Y-106142619D01*
X159488571Y-106142619D02*
X159536190Y-106095000D01*
X159536190Y-106095000D02*
X159631428Y-106047380D01*
X159631428Y-106047380D02*
X159869523Y-106047380D01*
X159869523Y-106047380D02*
X160012380Y-106095000D01*
X160440952Y-107047380D02*
X160440952Y-106047380D01*
X160440952Y-106047380D02*
X160821904Y-106047380D01*
X160821904Y-106047380D02*
X160917142Y-106095000D01*
X160917142Y-106095000D02*
X160964761Y-106142619D01*
X160964761Y-106142619D02*
X161012380Y-106237857D01*
X161012380Y-106237857D02*
X161012380Y-106380714D01*
X161012380Y-106380714D02*
X160964761Y-106475952D01*
X160964761Y-106475952D02*
X160917142Y-106523571D01*
X160917142Y-106523571D02*
X160821904Y-106571190D01*
X160821904Y-106571190D02*
X160440952Y-106571190D01*
X161440952Y-106523571D02*
X161774285Y-106523571D01*
X161917142Y-107047380D02*
X161440952Y-107047380D01*
X161440952Y-107047380D02*
X161440952Y-106047380D01*
X161440952Y-106047380D02*
X161917142Y-106047380D01*
X162298095Y-106761666D02*
X162774285Y-106761666D01*
X162202857Y-107047380D02*
X162536190Y-106047380D01*
X162536190Y-106047380D02*
X162869523Y-107047380D01*
X163202857Y-107047380D02*
X163202857Y-106047380D01*
X163774285Y-107047380D02*
X163345714Y-106475952D01*
X163774285Y-106047380D02*
X163202857Y-106618809D01*
X164202857Y-106523571D02*
X164536190Y-106523571D01*
X164679047Y-107047380D02*
X164202857Y-107047380D01*
X164202857Y-107047380D02*
X164202857Y-106047380D01*
X164202857Y-106047380D02*
X164679047Y-106047380D01*
X165679047Y-107047380D02*
X165345714Y-106571190D01*
X165107619Y-107047380D02*
X165107619Y-106047380D01*
X165107619Y-106047380D02*
X165488571Y-106047380D01*
X165488571Y-106047380D02*
X165583809Y-106095000D01*
X165583809Y-106095000D02*
X165631428Y-106142619D01*
X165631428Y-106142619D02*
X165679047Y-106237857D01*
X165679047Y-106237857D02*
X165679047Y-106380714D01*
X165679047Y-106380714D02*
X165631428Y-106475952D01*
X165631428Y-106475952D02*
X165583809Y-106523571D01*
X165583809Y-106523571D02*
X165488571Y-106571190D01*
X165488571Y-106571190D02*
X165107619Y-106571190D01*
X104507380Y-73429523D02*
X103507380Y-73429523D01*
X103507380Y-73429523D02*
X103507380Y-73048571D01*
X103507380Y-73048571D02*
X103555000Y-72953333D01*
X103555000Y-72953333D02*
X103602619Y-72905714D01*
X103602619Y-72905714D02*
X103697857Y-72858095D01*
X103697857Y-72858095D02*
X103840714Y-72858095D01*
X103840714Y-72858095D02*
X103935952Y-72905714D01*
X103935952Y-72905714D02*
X103983571Y-72953333D01*
X103983571Y-72953333D02*
X104031190Y-73048571D01*
X104031190Y-73048571D02*
X104031190Y-73429523D01*
X103507380Y-72239047D02*
X103507380Y-72048571D01*
X103507380Y-72048571D02*
X103555000Y-71953333D01*
X103555000Y-71953333D02*
X103650238Y-71858095D01*
X103650238Y-71858095D02*
X103840714Y-71810476D01*
X103840714Y-71810476D02*
X104174047Y-71810476D01*
X104174047Y-71810476D02*
X104364523Y-71858095D01*
X104364523Y-71858095D02*
X104459761Y-71953333D01*
X104459761Y-71953333D02*
X104507380Y-72048571D01*
X104507380Y-72048571D02*
X104507380Y-72239047D01*
X104507380Y-72239047D02*
X104459761Y-72334285D01*
X104459761Y-72334285D02*
X104364523Y-72429523D01*
X104364523Y-72429523D02*
X104174047Y-72477142D01*
X104174047Y-72477142D02*
X103840714Y-72477142D01*
X103840714Y-72477142D02*
X103650238Y-72429523D01*
X103650238Y-72429523D02*
X103555000Y-72334285D01*
X103555000Y-72334285D02*
X103507380Y-72239047D01*
X103507380Y-71477142D02*
X104507380Y-71239047D01*
X104507380Y-71239047D02*
X103793095Y-71048571D01*
X103793095Y-71048571D02*
X104507380Y-70858095D01*
X104507380Y-70858095D02*
X103507380Y-70620000D01*
X103983571Y-70239047D02*
X103983571Y-69905714D01*
X104507380Y-69762857D02*
X104507380Y-70239047D01*
X104507380Y-70239047D02*
X103507380Y-70239047D01*
X103507380Y-70239047D02*
X103507380Y-69762857D01*
X104507380Y-68762857D02*
X104031190Y-69096190D01*
X104507380Y-69334285D02*
X103507380Y-69334285D01*
X103507380Y-69334285D02*
X103507380Y-68953333D01*
X103507380Y-68953333D02*
X103555000Y-68858095D01*
X103555000Y-68858095D02*
X103602619Y-68810476D01*
X103602619Y-68810476D02*
X103697857Y-68762857D01*
X103697857Y-68762857D02*
X103840714Y-68762857D01*
X103840714Y-68762857D02*
X103935952Y-68810476D01*
X103935952Y-68810476D02*
X103983571Y-68858095D01*
X103983571Y-68858095D02*
X104031190Y-68953333D01*
X104031190Y-68953333D02*
X104031190Y-69334285D01*
D11*
X128260000Y-109771071D02*
X128260000Y-108271071D01*
X128260000Y-108271071D02*
X128760000Y-109342500D01*
X128760000Y-109342500D02*
X129260000Y-108271071D01*
X129260000Y-108271071D02*
X129260000Y-109771071D01*
X129974286Y-109771071D02*
X129974286Y-108271071D01*
X131545715Y-109628214D02*
X131474287Y-109699642D01*
X131474287Y-109699642D02*
X131260001Y-109771071D01*
X131260001Y-109771071D02*
X131117144Y-109771071D01*
X131117144Y-109771071D02*
X130902858Y-109699642D01*
X130902858Y-109699642D02*
X130760001Y-109556785D01*
X130760001Y-109556785D02*
X130688572Y-109413928D01*
X130688572Y-109413928D02*
X130617144Y-109128214D01*
X130617144Y-109128214D02*
X130617144Y-108913928D01*
X130617144Y-108913928D02*
X130688572Y-108628214D01*
X130688572Y-108628214D02*
X130760001Y-108485357D01*
X130760001Y-108485357D02*
X130902858Y-108342500D01*
X130902858Y-108342500D02*
X131117144Y-108271071D01*
X131117144Y-108271071D02*
X131260001Y-108271071D01*
X131260001Y-108271071D02*
X131474287Y-108342500D01*
X131474287Y-108342500D02*
X131545715Y-108413928D01*
X132874287Y-108271071D02*
X133731430Y-108271071D01*
X133302858Y-109771071D02*
X133302858Y-108271071D01*
X134231429Y-108985357D02*
X134731429Y-108985357D01*
X134945715Y-109771071D02*
X134231429Y-109771071D01*
X134231429Y-109771071D02*
X134231429Y-108271071D01*
X134231429Y-108271071D02*
X134945715Y-108271071D01*
X135517144Y-109699642D02*
X135731430Y-109771071D01*
X135731430Y-109771071D02*
X136088572Y-109771071D01*
X136088572Y-109771071D02*
X136231430Y-109699642D01*
X136231430Y-109699642D02*
X136302858Y-109628214D01*
X136302858Y-109628214D02*
X136374287Y-109485357D01*
X136374287Y-109485357D02*
X136374287Y-109342500D01*
X136374287Y-109342500D02*
X136302858Y-109199642D01*
X136302858Y-109199642D02*
X136231430Y-109128214D01*
X136231430Y-109128214D02*
X136088572Y-109056785D01*
X136088572Y-109056785D02*
X135802858Y-108985357D01*
X135802858Y-108985357D02*
X135660001Y-108913928D01*
X135660001Y-108913928D02*
X135588572Y-108842500D01*
X135588572Y-108842500D02*
X135517144Y-108699642D01*
X135517144Y-108699642D02*
X135517144Y-108556785D01*
X135517144Y-108556785D02*
X135588572Y-108413928D01*
X135588572Y-108413928D02*
X135660001Y-108342500D01*
X135660001Y-108342500D02*
X135802858Y-108271071D01*
X135802858Y-108271071D02*
X136160001Y-108271071D01*
X136160001Y-108271071D02*
X136374287Y-108342500D01*
X136802858Y-108271071D02*
X137660001Y-108271071D01*
X137231429Y-109771071D02*
X137231429Y-108271071D01*
X138160000Y-108985357D02*
X138660000Y-108985357D01*
X138874286Y-109771071D02*
X138160000Y-109771071D01*
X138160000Y-109771071D02*
X138160000Y-108271071D01*
X138160000Y-108271071D02*
X138874286Y-108271071D01*
X140374286Y-109771071D02*
X139874286Y-109056785D01*
X139517143Y-109771071D02*
X139517143Y-108271071D01*
X139517143Y-108271071D02*
X140088572Y-108271071D01*
X140088572Y-108271071D02*
X140231429Y-108342500D01*
X140231429Y-108342500D02*
X140302858Y-108413928D01*
X140302858Y-108413928D02*
X140374286Y-108556785D01*
X140374286Y-108556785D02*
X140374286Y-108771071D01*
X140374286Y-108771071D02*
X140302858Y-108913928D01*
X140302858Y-108913928D02*
X140231429Y-108985357D01*
X140231429Y-108985357D02*
X140088572Y-109056785D01*
X140088572Y-109056785D02*
X139517143Y-109056785D01*
X141702858Y-108271071D02*
X142202858Y-109771071D01*
X142202858Y-109771071D02*
X142702858Y-108271071D01*
X143988572Y-109771071D02*
X143131429Y-109771071D01*
X143560000Y-109771071D02*
X143560000Y-108271071D01*
X143560000Y-108271071D02*
X143417143Y-108485357D01*
X143417143Y-108485357D02*
X143274286Y-108628214D01*
X143274286Y-108628214D02*
X143131429Y-108699642D01*
X144631428Y-109628214D02*
X144702857Y-109699642D01*
X144702857Y-109699642D02*
X144631428Y-109771071D01*
X144631428Y-109771071D02*
X144560000Y-109699642D01*
X144560000Y-109699642D02*
X144631428Y-109628214D01*
X144631428Y-109628214D02*
X144631428Y-109771071D01*
X145631429Y-108271071D02*
X145774286Y-108271071D01*
X145774286Y-108271071D02*
X145917143Y-108342500D01*
X145917143Y-108342500D02*
X145988572Y-108413928D01*
X145988572Y-108413928D02*
X146060000Y-108556785D01*
X146060000Y-108556785D02*
X146131429Y-108842500D01*
X146131429Y-108842500D02*
X146131429Y-109199642D01*
X146131429Y-109199642D02*
X146060000Y-109485357D01*
X146060000Y-109485357D02*
X145988572Y-109628214D01*
X145988572Y-109628214D02*
X145917143Y-109699642D01*
X145917143Y-109699642D02*
X145774286Y-109771071D01*
X145774286Y-109771071D02*
X145631429Y-109771071D01*
X145631429Y-109771071D02*
X145488572Y-109699642D01*
X145488572Y-109699642D02*
X145417143Y-109628214D01*
X145417143Y-109628214D02*
X145345714Y-109485357D01*
X145345714Y-109485357D02*
X145274286Y-109199642D01*
X145274286Y-109199642D02*
X145274286Y-108842500D01*
X145274286Y-108842500D02*
X145345714Y-108556785D01*
X145345714Y-108556785D02*
X145417143Y-108413928D01*
X145417143Y-108413928D02*
X145488572Y-108342500D01*
X145488572Y-108342500D02*
X145631429Y-108271071D01*
D10*
X158783810Y-66121666D02*
X159260000Y-66121666D01*
X158688572Y-66407380D02*
X159021905Y-65407380D01*
X159021905Y-65407380D02*
X159355238Y-66407380D01*
X159688572Y-66407380D02*
X159688572Y-65407380D01*
X159688572Y-65407380D02*
X160021905Y-66121666D01*
X160021905Y-66121666D02*
X160355238Y-65407380D01*
X160355238Y-65407380D02*
X160355238Y-66407380D01*
X160831429Y-66407380D02*
X160831429Y-65407380D01*
X160831429Y-65407380D02*
X161212381Y-65407380D01*
X161212381Y-65407380D02*
X161307619Y-65455000D01*
X161307619Y-65455000D02*
X161355238Y-65502619D01*
X161355238Y-65502619D02*
X161402857Y-65597857D01*
X161402857Y-65597857D02*
X161402857Y-65740714D01*
X161402857Y-65740714D02*
X161355238Y-65835952D01*
X161355238Y-65835952D02*
X161307619Y-65883571D01*
X161307619Y-65883571D02*
X161212381Y-65931190D01*
X161212381Y-65931190D02*
X160831429Y-65931190D01*
X162431429Y-66407380D02*
X162431429Y-65407380D01*
X162907619Y-66407380D02*
X162907619Y-65407380D01*
X162907619Y-65407380D02*
X163479047Y-66407380D01*
X163479047Y-66407380D02*
X163479047Y-65407380D01*
X163955238Y-66407380D02*
X163955238Y-65407380D01*
X163955238Y-65407380D02*
X164336190Y-65407380D01*
X164336190Y-65407380D02*
X164431428Y-65455000D01*
X164431428Y-65455000D02*
X164479047Y-65502619D01*
X164479047Y-65502619D02*
X164526666Y-65597857D01*
X164526666Y-65597857D02*
X164526666Y-65740714D01*
X164526666Y-65740714D02*
X164479047Y-65835952D01*
X164479047Y-65835952D02*
X164431428Y-65883571D01*
X164431428Y-65883571D02*
X164336190Y-65931190D01*
X164336190Y-65931190D02*
X163955238Y-65931190D01*
X164955238Y-65407380D02*
X164955238Y-66216904D01*
X164955238Y-66216904D02*
X165002857Y-66312142D01*
X165002857Y-66312142D02*
X165050476Y-66359761D01*
X165050476Y-66359761D02*
X165145714Y-66407380D01*
X165145714Y-66407380D02*
X165336190Y-66407380D01*
X165336190Y-66407380D02*
X165431428Y-66359761D01*
X165431428Y-66359761D02*
X165479047Y-66312142D01*
X165479047Y-66312142D02*
X165526666Y-66216904D01*
X165526666Y-66216904D02*
X165526666Y-65407380D01*
X165860000Y-65407380D02*
X166431428Y-65407380D01*
X166145714Y-66407380D02*
X166145714Y-65407380D01*
X103759048Y-76186428D02*
X104520953Y-76186428D01*
X104140000Y-76567380D02*
X104140000Y-75805476D01*
X108850477Y-106666428D02*
X109612382Y-106666428D01*
X109231429Y-107047380D02*
X109231429Y-106285476D01*
X110688572Y-107047380D02*
X110688572Y-106047380D01*
X110688572Y-106047380D02*
X111021905Y-106761666D01*
X111021905Y-106761666D02*
X111355238Y-106047380D01*
X111355238Y-106047380D02*
X111355238Y-107047380D01*
X111831429Y-107047380D02*
X111831429Y-106047380D01*
X112879047Y-106952142D02*
X112831428Y-106999761D01*
X112831428Y-106999761D02*
X112688571Y-107047380D01*
X112688571Y-107047380D02*
X112593333Y-107047380D01*
X112593333Y-107047380D02*
X112450476Y-106999761D01*
X112450476Y-106999761D02*
X112355238Y-106904523D01*
X112355238Y-106904523D02*
X112307619Y-106809285D01*
X112307619Y-106809285D02*
X112260000Y-106618809D01*
X112260000Y-106618809D02*
X112260000Y-106475952D01*
X112260000Y-106475952D02*
X112307619Y-106285476D01*
X112307619Y-106285476D02*
X112355238Y-106190238D01*
X112355238Y-106190238D02*
X112450476Y-106095000D01*
X112450476Y-106095000D02*
X112593333Y-106047380D01*
X112593333Y-106047380D02*
X112688571Y-106047380D01*
X112688571Y-106047380D02*
X112831428Y-106095000D01*
X112831428Y-106095000D02*
X112879047Y-106142619D01*
X113907619Y-106666428D02*
X114669524Y-106666428D01*
X104126428Y-66370951D02*
X104126428Y-65609047D01*
%TO.C,RV1*%
X141684761Y-91247380D02*
X141351428Y-90771190D01*
X141113333Y-91247380D02*
X141113333Y-90247380D01*
X141113333Y-90247380D02*
X141494285Y-90247380D01*
X141494285Y-90247380D02*
X141589523Y-90295000D01*
X141589523Y-90295000D02*
X141637142Y-90342619D01*
X141637142Y-90342619D02*
X141684761Y-90437857D01*
X141684761Y-90437857D02*
X141684761Y-90580714D01*
X141684761Y-90580714D02*
X141637142Y-90675952D01*
X141637142Y-90675952D02*
X141589523Y-90723571D01*
X141589523Y-90723571D02*
X141494285Y-90771190D01*
X141494285Y-90771190D02*
X141113333Y-90771190D01*
X141970476Y-90247380D02*
X142303809Y-91247380D01*
X142303809Y-91247380D02*
X142637142Y-90247380D01*
X143494285Y-91247380D02*
X142922857Y-91247380D01*
X143208571Y-91247380D02*
X143208571Y-90247380D01*
X143208571Y-90247380D02*
X143113333Y-90390238D01*
X143113333Y-90390238D02*
X143018095Y-90485476D01*
X143018095Y-90485476D02*
X142922857Y-90533095D01*
%TO.C,R2*%
X117037380Y-91606666D02*
X116561190Y-91939999D01*
X117037380Y-92178094D02*
X116037380Y-92178094D01*
X116037380Y-92178094D02*
X116037380Y-91797142D01*
X116037380Y-91797142D02*
X116085000Y-91701904D01*
X116085000Y-91701904D02*
X116132619Y-91654285D01*
X116132619Y-91654285D02*
X116227857Y-91606666D01*
X116227857Y-91606666D02*
X116370714Y-91606666D01*
X116370714Y-91606666D02*
X116465952Y-91654285D01*
X116465952Y-91654285D02*
X116513571Y-91701904D01*
X116513571Y-91701904D02*
X116561190Y-91797142D01*
X116561190Y-91797142D02*
X116561190Y-92178094D01*
X116132619Y-91225713D02*
X116085000Y-91178094D01*
X116085000Y-91178094D02*
X116037380Y-91082856D01*
X116037380Y-91082856D02*
X116037380Y-90844761D01*
X116037380Y-90844761D02*
X116085000Y-90749523D01*
X116085000Y-90749523D02*
X116132619Y-90701904D01*
X116132619Y-90701904D02*
X116227857Y-90654285D01*
X116227857Y-90654285D02*
X116323095Y-90654285D01*
X116323095Y-90654285D02*
X116465952Y-90701904D01*
X116465952Y-90701904D02*
X117037380Y-91273332D01*
X117037380Y-91273332D02*
X117037380Y-90654285D01*
%TO.C,R3*%
X122117380Y-91606666D02*
X121641190Y-91939999D01*
X122117380Y-92178094D02*
X121117380Y-92178094D01*
X121117380Y-92178094D02*
X121117380Y-91797142D01*
X121117380Y-91797142D02*
X121165000Y-91701904D01*
X121165000Y-91701904D02*
X121212619Y-91654285D01*
X121212619Y-91654285D02*
X121307857Y-91606666D01*
X121307857Y-91606666D02*
X121450714Y-91606666D01*
X121450714Y-91606666D02*
X121545952Y-91654285D01*
X121545952Y-91654285D02*
X121593571Y-91701904D01*
X121593571Y-91701904D02*
X121641190Y-91797142D01*
X121641190Y-91797142D02*
X121641190Y-92178094D01*
X121117380Y-91273332D02*
X121117380Y-90654285D01*
X121117380Y-90654285D02*
X121498333Y-90987618D01*
X121498333Y-90987618D02*
X121498333Y-90844761D01*
X121498333Y-90844761D02*
X121545952Y-90749523D01*
X121545952Y-90749523D02*
X121593571Y-90701904D01*
X121593571Y-90701904D02*
X121688809Y-90654285D01*
X121688809Y-90654285D02*
X121926904Y-90654285D01*
X121926904Y-90654285D02*
X122022142Y-90701904D01*
X122022142Y-90701904D02*
X122069761Y-90749523D01*
X122069761Y-90749523D02*
X122117380Y-90844761D01*
X122117380Y-90844761D02*
X122117380Y-91130475D01*
X122117380Y-91130475D02*
X122069761Y-91225713D01*
X122069761Y-91225713D02*
X122022142Y-91273332D01*
%TO.C,U2*%
X148177380Y-87111904D02*
X148986904Y-87111904D01*
X148986904Y-87111904D02*
X149082142Y-87064285D01*
X149082142Y-87064285D02*
X149129761Y-87016666D01*
X149129761Y-87016666D02*
X149177380Y-86921428D01*
X149177380Y-86921428D02*
X149177380Y-86730952D01*
X149177380Y-86730952D02*
X149129761Y-86635714D01*
X149129761Y-86635714D02*
X149082142Y-86588095D01*
X149082142Y-86588095D02*
X148986904Y-86540476D01*
X148986904Y-86540476D02*
X148177380Y-86540476D01*
X148272619Y-86111904D02*
X148225000Y-86064285D01*
X148225000Y-86064285D02*
X148177380Y-85969047D01*
X148177380Y-85969047D02*
X148177380Y-85730952D01*
X148177380Y-85730952D02*
X148225000Y-85635714D01*
X148225000Y-85635714D02*
X148272619Y-85588095D01*
X148272619Y-85588095D02*
X148367857Y-85540476D01*
X148367857Y-85540476D02*
X148463095Y-85540476D01*
X148463095Y-85540476D02*
X148605952Y-85588095D01*
X148605952Y-85588095D02*
X149177380Y-86159523D01*
X149177380Y-86159523D02*
X149177380Y-85540476D01*
%TO.C,R1*%
X107217380Y-91606666D02*
X106741190Y-91939999D01*
X107217380Y-92178094D02*
X106217380Y-92178094D01*
X106217380Y-92178094D02*
X106217380Y-91797142D01*
X106217380Y-91797142D02*
X106265000Y-91701904D01*
X106265000Y-91701904D02*
X106312619Y-91654285D01*
X106312619Y-91654285D02*
X106407857Y-91606666D01*
X106407857Y-91606666D02*
X106550714Y-91606666D01*
X106550714Y-91606666D02*
X106645952Y-91654285D01*
X106645952Y-91654285D02*
X106693571Y-91701904D01*
X106693571Y-91701904D02*
X106741190Y-91797142D01*
X106741190Y-91797142D02*
X106741190Y-92178094D01*
X107217380Y-90654285D02*
X107217380Y-91225713D01*
X107217380Y-90939999D02*
X106217380Y-90939999D01*
X106217380Y-90939999D02*
X106360238Y-91035237D01*
X106360238Y-91035237D02*
X106455476Y-91130475D01*
X106455476Y-91130475D02*
X106503095Y-91225713D01*
%TO.C,D1*%
X138947380Y-70588094D02*
X137947380Y-70588094D01*
X137947380Y-70588094D02*
X137947380Y-70349999D01*
X137947380Y-70349999D02*
X137995000Y-70207142D01*
X137995000Y-70207142D02*
X138090238Y-70111904D01*
X138090238Y-70111904D02*
X138185476Y-70064285D01*
X138185476Y-70064285D02*
X138375952Y-70016666D01*
X138375952Y-70016666D02*
X138518809Y-70016666D01*
X138518809Y-70016666D02*
X138709285Y-70064285D01*
X138709285Y-70064285D02*
X138804523Y-70111904D01*
X138804523Y-70111904D02*
X138899761Y-70207142D01*
X138899761Y-70207142D02*
X138947380Y-70349999D01*
X138947380Y-70349999D02*
X138947380Y-70588094D01*
X138947380Y-69064285D02*
X138947380Y-69635713D01*
X138947380Y-69349999D02*
X137947380Y-69349999D01*
X137947380Y-69349999D02*
X138090238Y-69445237D01*
X138090238Y-69445237D02*
X138185476Y-69540475D01*
X138185476Y-69540475D02*
X138233095Y-69635713D01*
%TO.C,R5*%
X126833333Y-106877380D02*
X126500000Y-106401190D01*
X126261905Y-106877380D02*
X126261905Y-105877380D01*
X126261905Y-105877380D02*
X126642857Y-105877380D01*
X126642857Y-105877380D02*
X126738095Y-105925000D01*
X126738095Y-105925000D02*
X126785714Y-105972619D01*
X126785714Y-105972619D02*
X126833333Y-106067857D01*
X126833333Y-106067857D02*
X126833333Y-106210714D01*
X126833333Y-106210714D02*
X126785714Y-106305952D01*
X126785714Y-106305952D02*
X126738095Y-106353571D01*
X126738095Y-106353571D02*
X126642857Y-106401190D01*
X126642857Y-106401190D02*
X126261905Y-106401190D01*
X127738095Y-105877380D02*
X127261905Y-105877380D01*
X127261905Y-105877380D02*
X127214286Y-106353571D01*
X127214286Y-106353571D02*
X127261905Y-106305952D01*
X127261905Y-106305952D02*
X127357143Y-106258333D01*
X127357143Y-106258333D02*
X127595238Y-106258333D01*
X127595238Y-106258333D02*
X127690476Y-106305952D01*
X127690476Y-106305952D02*
X127738095Y-106353571D01*
X127738095Y-106353571D02*
X127785714Y-106448809D01*
X127785714Y-106448809D02*
X127785714Y-106686904D01*
X127785714Y-106686904D02*
X127738095Y-106782142D01*
X127738095Y-106782142D02*
X127690476Y-106829761D01*
X127690476Y-106829761D02*
X127595238Y-106877380D01*
X127595238Y-106877380D02*
X127357143Y-106877380D01*
X127357143Y-106877380D02*
X127261905Y-106829761D01*
X127261905Y-106829761D02*
X127214286Y-106782142D01*
%TO.C,C6*%
X156063333Y-77682142D02*
X156015714Y-77729761D01*
X156015714Y-77729761D02*
X155872857Y-77777380D01*
X155872857Y-77777380D02*
X155777619Y-77777380D01*
X155777619Y-77777380D02*
X155634762Y-77729761D01*
X155634762Y-77729761D02*
X155539524Y-77634523D01*
X155539524Y-77634523D02*
X155491905Y-77539285D01*
X155491905Y-77539285D02*
X155444286Y-77348809D01*
X155444286Y-77348809D02*
X155444286Y-77205952D01*
X155444286Y-77205952D02*
X155491905Y-77015476D01*
X155491905Y-77015476D02*
X155539524Y-76920238D01*
X155539524Y-76920238D02*
X155634762Y-76825000D01*
X155634762Y-76825000D02*
X155777619Y-76777380D01*
X155777619Y-76777380D02*
X155872857Y-76777380D01*
X155872857Y-76777380D02*
X156015714Y-76825000D01*
X156015714Y-76825000D02*
X156063333Y-76872619D01*
X156920476Y-76777380D02*
X156730000Y-76777380D01*
X156730000Y-76777380D02*
X156634762Y-76825000D01*
X156634762Y-76825000D02*
X156587143Y-76872619D01*
X156587143Y-76872619D02*
X156491905Y-77015476D01*
X156491905Y-77015476D02*
X156444286Y-77205952D01*
X156444286Y-77205952D02*
X156444286Y-77586904D01*
X156444286Y-77586904D02*
X156491905Y-77682142D01*
X156491905Y-77682142D02*
X156539524Y-77729761D01*
X156539524Y-77729761D02*
X156634762Y-77777380D01*
X156634762Y-77777380D02*
X156825238Y-77777380D01*
X156825238Y-77777380D02*
X156920476Y-77729761D01*
X156920476Y-77729761D02*
X156968095Y-77682142D01*
X156968095Y-77682142D02*
X157015714Y-77586904D01*
X157015714Y-77586904D02*
X157015714Y-77348809D01*
X157015714Y-77348809D02*
X156968095Y-77253571D01*
X156968095Y-77253571D02*
X156920476Y-77205952D01*
X156920476Y-77205952D02*
X156825238Y-77158333D01*
X156825238Y-77158333D02*
X156634762Y-77158333D01*
X156634762Y-77158333D02*
X156539524Y-77205952D01*
X156539524Y-77205952D02*
X156491905Y-77253571D01*
X156491905Y-77253571D02*
X156444286Y-77348809D01*
%TO.C,C4*%
X145863333Y-65142142D02*
X145815714Y-65189761D01*
X145815714Y-65189761D02*
X145672857Y-65237380D01*
X145672857Y-65237380D02*
X145577619Y-65237380D01*
X145577619Y-65237380D02*
X145434762Y-65189761D01*
X145434762Y-65189761D02*
X145339524Y-65094523D01*
X145339524Y-65094523D02*
X145291905Y-64999285D01*
X145291905Y-64999285D02*
X145244286Y-64808809D01*
X145244286Y-64808809D02*
X145244286Y-64665952D01*
X145244286Y-64665952D02*
X145291905Y-64475476D01*
X145291905Y-64475476D02*
X145339524Y-64380238D01*
X145339524Y-64380238D02*
X145434762Y-64285000D01*
X145434762Y-64285000D02*
X145577619Y-64237380D01*
X145577619Y-64237380D02*
X145672857Y-64237380D01*
X145672857Y-64237380D02*
X145815714Y-64285000D01*
X145815714Y-64285000D02*
X145863333Y-64332619D01*
X146720476Y-64570714D02*
X146720476Y-65237380D01*
X146482381Y-64189761D02*
X146244286Y-64904047D01*
X146244286Y-64904047D02*
X146863333Y-64904047D01*
%TO.C,C1*%
X110303333Y-79052142D02*
X110255714Y-79099761D01*
X110255714Y-79099761D02*
X110112857Y-79147380D01*
X110112857Y-79147380D02*
X110017619Y-79147380D01*
X110017619Y-79147380D02*
X109874762Y-79099761D01*
X109874762Y-79099761D02*
X109779524Y-79004523D01*
X109779524Y-79004523D02*
X109731905Y-78909285D01*
X109731905Y-78909285D02*
X109684286Y-78718809D01*
X109684286Y-78718809D02*
X109684286Y-78575952D01*
X109684286Y-78575952D02*
X109731905Y-78385476D01*
X109731905Y-78385476D02*
X109779524Y-78290238D01*
X109779524Y-78290238D02*
X109874762Y-78195000D01*
X109874762Y-78195000D02*
X110017619Y-78147380D01*
X110017619Y-78147380D02*
X110112857Y-78147380D01*
X110112857Y-78147380D02*
X110255714Y-78195000D01*
X110255714Y-78195000D02*
X110303333Y-78242619D01*
X111255714Y-79147380D02*
X110684286Y-79147380D01*
X110970000Y-79147380D02*
X110970000Y-78147380D01*
X110970000Y-78147380D02*
X110874762Y-78290238D01*
X110874762Y-78290238D02*
X110779524Y-78385476D01*
X110779524Y-78385476D02*
X110684286Y-78433095D01*
%TO.C,J1*%
X113897380Y-104473333D02*
X114611666Y-104473333D01*
X114611666Y-104473333D02*
X114754523Y-104520952D01*
X114754523Y-104520952D02*
X114849761Y-104616190D01*
X114849761Y-104616190D02*
X114897380Y-104759047D01*
X114897380Y-104759047D02*
X114897380Y-104854285D01*
X114897380Y-103473333D02*
X114897380Y-104044761D01*
X114897380Y-103759047D02*
X113897380Y-103759047D01*
X113897380Y-103759047D02*
X114040238Y-103854285D01*
X114040238Y-103854285D02*
X114135476Y-103949523D01*
X114135476Y-103949523D02*
X114183095Y-104044761D01*
%TO.C,C7*%
X167872142Y-85236666D02*
X167919761Y-85284285D01*
X167919761Y-85284285D02*
X167967380Y-85427142D01*
X167967380Y-85427142D02*
X167967380Y-85522380D01*
X167967380Y-85522380D02*
X167919761Y-85665237D01*
X167919761Y-85665237D02*
X167824523Y-85760475D01*
X167824523Y-85760475D02*
X167729285Y-85808094D01*
X167729285Y-85808094D02*
X167538809Y-85855713D01*
X167538809Y-85855713D02*
X167395952Y-85855713D01*
X167395952Y-85855713D02*
X167205476Y-85808094D01*
X167205476Y-85808094D02*
X167110238Y-85760475D01*
X167110238Y-85760475D02*
X167015000Y-85665237D01*
X167015000Y-85665237D02*
X166967380Y-85522380D01*
X166967380Y-85522380D02*
X166967380Y-85427142D01*
X166967380Y-85427142D02*
X167015000Y-85284285D01*
X167015000Y-85284285D02*
X167062619Y-85236666D01*
X166967380Y-84903332D02*
X166967380Y-84236666D01*
X166967380Y-84236666D02*
X167967380Y-84665237D01*
%TO.C,C3*%
X125543333Y-66352142D02*
X125495714Y-66399761D01*
X125495714Y-66399761D02*
X125352857Y-66447380D01*
X125352857Y-66447380D02*
X125257619Y-66447380D01*
X125257619Y-66447380D02*
X125114762Y-66399761D01*
X125114762Y-66399761D02*
X125019524Y-66304523D01*
X125019524Y-66304523D02*
X124971905Y-66209285D01*
X124971905Y-66209285D02*
X124924286Y-66018809D01*
X124924286Y-66018809D02*
X124924286Y-65875952D01*
X124924286Y-65875952D02*
X124971905Y-65685476D01*
X124971905Y-65685476D02*
X125019524Y-65590238D01*
X125019524Y-65590238D02*
X125114762Y-65495000D01*
X125114762Y-65495000D02*
X125257619Y-65447380D01*
X125257619Y-65447380D02*
X125352857Y-65447380D01*
X125352857Y-65447380D02*
X125495714Y-65495000D01*
X125495714Y-65495000D02*
X125543333Y-65542619D01*
X125876667Y-65447380D02*
X126495714Y-65447380D01*
X126495714Y-65447380D02*
X126162381Y-65828333D01*
X126162381Y-65828333D02*
X126305238Y-65828333D01*
X126305238Y-65828333D02*
X126400476Y-65875952D01*
X126400476Y-65875952D02*
X126448095Y-65923571D01*
X126448095Y-65923571D02*
X126495714Y-66018809D01*
X126495714Y-66018809D02*
X126495714Y-66256904D01*
X126495714Y-66256904D02*
X126448095Y-66352142D01*
X126448095Y-66352142D02*
X126400476Y-66399761D01*
X126400476Y-66399761D02*
X126305238Y-66447380D01*
X126305238Y-66447380D02*
X126019524Y-66447380D01*
X126019524Y-66447380D02*
X125924286Y-66399761D01*
X125924286Y-66399761D02*
X125876667Y-66352142D01*
%TO.C,R6*%
X159853333Y-99257380D02*
X159520000Y-98781190D01*
X159281905Y-99257380D02*
X159281905Y-98257380D01*
X159281905Y-98257380D02*
X159662857Y-98257380D01*
X159662857Y-98257380D02*
X159758095Y-98305000D01*
X159758095Y-98305000D02*
X159805714Y-98352619D01*
X159805714Y-98352619D02*
X159853333Y-98447857D01*
X159853333Y-98447857D02*
X159853333Y-98590714D01*
X159853333Y-98590714D02*
X159805714Y-98685952D01*
X159805714Y-98685952D02*
X159758095Y-98733571D01*
X159758095Y-98733571D02*
X159662857Y-98781190D01*
X159662857Y-98781190D02*
X159281905Y-98781190D01*
X160710476Y-98257380D02*
X160520000Y-98257380D01*
X160520000Y-98257380D02*
X160424762Y-98305000D01*
X160424762Y-98305000D02*
X160377143Y-98352619D01*
X160377143Y-98352619D02*
X160281905Y-98495476D01*
X160281905Y-98495476D02*
X160234286Y-98685952D01*
X160234286Y-98685952D02*
X160234286Y-99066904D01*
X160234286Y-99066904D02*
X160281905Y-99162142D01*
X160281905Y-99162142D02*
X160329524Y-99209761D01*
X160329524Y-99209761D02*
X160424762Y-99257380D01*
X160424762Y-99257380D02*
X160615238Y-99257380D01*
X160615238Y-99257380D02*
X160710476Y-99209761D01*
X160710476Y-99209761D02*
X160758095Y-99162142D01*
X160758095Y-99162142D02*
X160805714Y-99066904D01*
X160805714Y-99066904D02*
X160805714Y-98828809D01*
X160805714Y-98828809D02*
X160758095Y-98733571D01*
X160758095Y-98733571D02*
X160710476Y-98685952D01*
X160710476Y-98685952D02*
X160615238Y-98638333D01*
X160615238Y-98638333D02*
X160424762Y-98638333D01*
X160424762Y-98638333D02*
X160329524Y-98685952D01*
X160329524Y-98685952D02*
X160281905Y-98733571D01*
X160281905Y-98733571D02*
X160234286Y-98828809D01*
%TO.C,J2*%
X159597380Y-68913333D02*
X160311666Y-68913333D01*
X160311666Y-68913333D02*
X160454523Y-68960952D01*
X160454523Y-68960952D02*
X160549761Y-69056190D01*
X160549761Y-69056190D02*
X160597380Y-69199047D01*
X160597380Y-69199047D02*
X160597380Y-69294285D01*
X159692619Y-68484761D02*
X159645000Y-68437142D01*
X159645000Y-68437142D02*
X159597380Y-68341904D01*
X159597380Y-68341904D02*
X159597380Y-68103809D01*
X159597380Y-68103809D02*
X159645000Y-68008571D01*
X159645000Y-68008571D02*
X159692619Y-67960952D01*
X159692619Y-67960952D02*
X159787857Y-67913333D01*
X159787857Y-67913333D02*
X159883095Y-67913333D01*
X159883095Y-67913333D02*
X160025952Y-67960952D01*
X160025952Y-67960952D02*
X160597380Y-68532380D01*
X160597380Y-68532380D02*
X160597380Y-67913333D01*
%TO.C,C5*%
X163683333Y-73972142D02*
X163635714Y-74019761D01*
X163635714Y-74019761D02*
X163492857Y-74067380D01*
X163492857Y-74067380D02*
X163397619Y-74067380D01*
X163397619Y-74067380D02*
X163254762Y-74019761D01*
X163254762Y-74019761D02*
X163159524Y-73924523D01*
X163159524Y-73924523D02*
X163111905Y-73829285D01*
X163111905Y-73829285D02*
X163064286Y-73638809D01*
X163064286Y-73638809D02*
X163064286Y-73495952D01*
X163064286Y-73495952D02*
X163111905Y-73305476D01*
X163111905Y-73305476D02*
X163159524Y-73210238D01*
X163159524Y-73210238D02*
X163254762Y-73115000D01*
X163254762Y-73115000D02*
X163397619Y-73067380D01*
X163397619Y-73067380D02*
X163492857Y-73067380D01*
X163492857Y-73067380D02*
X163635714Y-73115000D01*
X163635714Y-73115000D02*
X163683333Y-73162619D01*
X164588095Y-73067380D02*
X164111905Y-73067380D01*
X164111905Y-73067380D02*
X164064286Y-73543571D01*
X164064286Y-73543571D02*
X164111905Y-73495952D01*
X164111905Y-73495952D02*
X164207143Y-73448333D01*
X164207143Y-73448333D02*
X164445238Y-73448333D01*
X164445238Y-73448333D02*
X164540476Y-73495952D01*
X164540476Y-73495952D02*
X164588095Y-73543571D01*
X164588095Y-73543571D02*
X164635714Y-73638809D01*
X164635714Y-73638809D02*
X164635714Y-73876904D01*
X164635714Y-73876904D02*
X164588095Y-73972142D01*
X164588095Y-73972142D02*
X164540476Y-74019761D01*
X164540476Y-74019761D02*
X164445238Y-74067380D01*
X164445238Y-74067380D02*
X164207143Y-74067380D01*
X164207143Y-74067380D02*
X164111905Y-74019761D01*
X164111905Y-74019761D02*
X164064286Y-73972142D01*
%TO.C,U1*%
X122777380Y-87111904D02*
X123586904Y-87111904D01*
X123586904Y-87111904D02*
X123682142Y-87064285D01*
X123682142Y-87064285D02*
X123729761Y-87016666D01*
X123729761Y-87016666D02*
X123777380Y-86921428D01*
X123777380Y-86921428D02*
X123777380Y-86730952D01*
X123777380Y-86730952D02*
X123729761Y-86635714D01*
X123729761Y-86635714D02*
X123682142Y-86588095D01*
X123682142Y-86588095D02*
X123586904Y-86540476D01*
X123586904Y-86540476D02*
X122777380Y-86540476D01*
X123777380Y-85540476D02*
X123777380Y-86111904D01*
X123777380Y-85826190D02*
X122777380Y-85826190D01*
X122777380Y-85826190D02*
X122920238Y-85921428D01*
X122920238Y-85921428D02*
X123015476Y-86016666D01*
X123015476Y-86016666D02*
X123063095Y-86111904D01*
%TO.C,C8*%
X145863333Y-95622142D02*
X145815714Y-95669761D01*
X145815714Y-95669761D02*
X145672857Y-95717380D01*
X145672857Y-95717380D02*
X145577619Y-95717380D01*
X145577619Y-95717380D02*
X145434762Y-95669761D01*
X145434762Y-95669761D02*
X145339524Y-95574523D01*
X145339524Y-95574523D02*
X145291905Y-95479285D01*
X145291905Y-95479285D02*
X145244286Y-95288809D01*
X145244286Y-95288809D02*
X145244286Y-95145952D01*
X145244286Y-95145952D02*
X145291905Y-94955476D01*
X145291905Y-94955476D02*
X145339524Y-94860238D01*
X145339524Y-94860238D02*
X145434762Y-94765000D01*
X145434762Y-94765000D02*
X145577619Y-94717380D01*
X145577619Y-94717380D02*
X145672857Y-94717380D01*
X145672857Y-94717380D02*
X145815714Y-94765000D01*
X145815714Y-94765000D02*
X145863333Y-94812619D01*
X146434762Y-95145952D02*
X146339524Y-95098333D01*
X146339524Y-95098333D02*
X146291905Y-95050714D01*
X146291905Y-95050714D02*
X146244286Y-94955476D01*
X146244286Y-94955476D02*
X146244286Y-94907857D01*
X146244286Y-94907857D02*
X146291905Y-94812619D01*
X146291905Y-94812619D02*
X146339524Y-94765000D01*
X146339524Y-94765000D02*
X146434762Y-94717380D01*
X146434762Y-94717380D02*
X146625238Y-94717380D01*
X146625238Y-94717380D02*
X146720476Y-94765000D01*
X146720476Y-94765000D02*
X146768095Y-94812619D01*
X146768095Y-94812619D02*
X146815714Y-94907857D01*
X146815714Y-94907857D02*
X146815714Y-94955476D01*
X146815714Y-94955476D02*
X146768095Y-95050714D01*
X146768095Y-95050714D02*
X146720476Y-95098333D01*
X146720476Y-95098333D02*
X146625238Y-95145952D01*
X146625238Y-95145952D02*
X146434762Y-95145952D01*
X146434762Y-95145952D02*
X146339524Y-95193571D01*
X146339524Y-95193571D02*
X146291905Y-95241190D01*
X146291905Y-95241190D02*
X146244286Y-95336428D01*
X146244286Y-95336428D02*
X146244286Y-95526904D01*
X146244286Y-95526904D02*
X146291905Y-95622142D01*
X146291905Y-95622142D02*
X146339524Y-95669761D01*
X146339524Y-95669761D02*
X146434762Y-95717380D01*
X146434762Y-95717380D02*
X146625238Y-95717380D01*
X146625238Y-95717380D02*
X146720476Y-95669761D01*
X146720476Y-95669761D02*
X146768095Y-95622142D01*
X146768095Y-95622142D02*
X146815714Y-95526904D01*
X146815714Y-95526904D02*
X146815714Y-95336428D01*
X146815714Y-95336428D02*
X146768095Y-95241190D01*
X146768095Y-95241190D02*
X146720476Y-95193571D01*
X146720476Y-95193571D02*
X146625238Y-95145952D01*
%TO.C,C2*%
X130663333Y-99292142D02*
X130615714Y-99339761D01*
X130615714Y-99339761D02*
X130472857Y-99387380D01*
X130472857Y-99387380D02*
X130377619Y-99387380D01*
X130377619Y-99387380D02*
X130234762Y-99339761D01*
X130234762Y-99339761D02*
X130139524Y-99244523D01*
X130139524Y-99244523D02*
X130091905Y-99149285D01*
X130091905Y-99149285D02*
X130044286Y-98958809D01*
X130044286Y-98958809D02*
X130044286Y-98815952D01*
X130044286Y-98815952D02*
X130091905Y-98625476D01*
X130091905Y-98625476D02*
X130139524Y-98530238D01*
X130139524Y-98530238D02*
X130234762Y-98435000D01*
X130234762Y-98435000D02*
X130377619Y-98387380D01*
X130377619Y-98387380D02*
X130472857Y-98387380D01*
X130472857Y-98387380D02*
X130615714Y-98435000D01*
X130615714Y-98435000D02*
X130663333Y-98482619D01*
X131044286Y-98482619D02*
X131091905Y-98435000D01*
X131091905Y-98435000D02*
X131187143Y-98387380D01*
X131187143Y-98387380D02*
X131425238Y-98387380D01*
X131425238Y-98387380D02*
X131520476Y-98435000D01*
X131520476Y-98435000D02*
X131568095Y-98482619D01*
X131568095Y-98482619D02*
X131615714Y-98577857D01*
X131615714Y-98577857D02*
X131615714Y-98673095D01*
X131615714Y-98673095D02*
X131568095Y-98815952D01*
X131568095Y-98815952D02*
X130996667Y-99387380D01*
X130996667Y-99387380D02*
X131615714Y-99387380D01*
%TO.C,R4*%
X124293333Y-76737380D02*
X123960000Y-76261190D01*
X123721905Y-76737380D02*
X123721905Y-75737380D01*
X123721905Y-75737380D02*
X124102857Y-75737380D01*
X124102857Y-75737380D02*
X124198095Y-75785000D01*
X124198095Y-75785000D02*
X124245714Y-75832619D01*
X124245714Y-75832619D02*
X124293333Y-75927857D01*
X124293333Y-75927857D02*
X124293333Y-76070714D01*
X124293333Y-76070714D02*
X124245714Y-76165952D01*
X124245714Y-76165952D02*
X124198095Y-76213571D01*
X124198095Y-76213571D02*
X124102857Y-76261190D01*
X124102857Y-76261190D02*
X123721905Y-76261190D01*
X125150476Y-76070714D02*
X125150476Y-76737380D01*
X124912381Y-75689761D02*
X124674286Y-76404047D01*
X124674286Y-76404047D02*
X125293333Y-76404047D01*
%TO.C,J3*%
X166797380Y-104473333D02*
X167511666Y-104473333D01*
X167511666Y-104473333D02*
X167654523Y-104520952D01*
X167654523Y-104520952D02*
X167749761Y-104616190D01*
X167749761Y-104616190D02*
X167797380Y-104759047D01*
X167797380Y-104759047D02*
X167797380Y-104854285D01*
X166797380Y-104092380D02*
X166797380Y-103473333D01*
X166797380Y-103473333D02*
X167178333Y-103806666D01*
X167178333Y-103806666D02*
X167178333Y-103663809D01*
X167178333Y-103663809D02*
X167225952Y-103568571D01*
X167225952Y-103568571D02*
X167273571Y-103520952D01*
X167273571Y-103520952D02*
X167368809Y-103473333D01*
X167368809Y-103473333D02*
X167606904Y-103473333D01*
X167606904Y-103473333D02*
X167702142Y-103520952D01*
X167702142Y-103520952D02*
X167749761Y-103568571D01*
X167749761Y-103568571D02*
X167797380Y-103663809D01*
X167797380Y-103663809D02*
X167797380Y-103949523D01*
X167797380Y-103949523D02*
X167749761Y-104044761D01*
X167749761Y-104044761D02*
X167702142Y-104092380D01*
%TO.C,J4*%
X117387380Y-71453333D02*
X118101666Y-71453333D01*
X118101666Y-71453333D02*
X118244523Y-71500952D01*
X118244523Y-71500952D02*
X118339761Y-71596190D01*
X118339761Y-71596190D02*
X118387380Y-71739047D01*
X118387380Y-71739047D02*
X118387380Y-71834285D01*
X117720714Y-70548571D02*
X118387380Y-70548571D01*
X117339761Y-70786666D02*
X118054047Y-71024761D01*
X118054047Y-71024761D02*
X118054047Y-70405714D01*
%TO.C,R0*%
X124293333Y-71657380D02*
X123960000Y-71181190D01*
X123721905Y-71657380D02*
X123721905Y-70657380D01*
X123721905Y-70657380D02*
X124102857Y-70657380D01*
X124102857Y-70657380D02*
X124198095Y-70705000D01*
X124198095Y-70705000D02*
X124245714Y-70752619D01*
X124245714Y-70752619D02*
X124293333Y-70847857D01*
X124293333Y-70847857D02*
X124293333Y-70990714D01*
X124293333Y-70990714D02*
X124245714Y-71085952D01*
X124245714Y-71085952D02*
X124198095Y-71133571D01*
X124198095Y-71133571D02*
X124102857Y-71181190D01*
X124102857Y-71181190D02*
X123721905Y-71181190D01*
X124912381Y-70657380D02*
X125007619Y-70657380D01*
X125007619Y-70657380D02*
X125102857Y-70705000D01*
X125102857Y-70705000D02*
X125150476Y-70752619D01*
X125150476Y-70752619D02*
X125198095Y-70847857D01*
X125198095Y-70847857D02*
X125245714Y-71038333D01*
X125245714Y-71038333D02*
X125245714Y-71276428D01*
X125245714Y-71276428D02*
X125198095Y-71466904D01*
X125198095Y-71466904D02*
X125150476Y-71562142D01*
X125150476Y-71562142D02*
X125102857Y-71609761D01*
X125102857Y-71609761D02*
X125007619Y-71657380D01*
X125007619Y-71657380D02*
X124912381Y-71657380D01*
X124912381Y-71657380D02*
X124817143Y-71609761D01*
X124817143Y-71609761D02*
X124769524Y-71562142D01*
X124769524Y-71562142D02*
X124721905Y-71466904D01*
X124721905Y-71466904D02*
X124674286Y-71276428D01*
X124674286Y-71276428D02*
X124674286Y-71038333D01*
X124674286Y-71038333D02*
X124721905Y-70847857D01*
X124721905Y-70847857D02*
X124769524Y-70752619D01*
X124769524Y-70752619D02*
X124817143Y-70705000D01*
X124817143Y-70705000D02*
X124912381Y-70657380D01*
D12*
%TO.C,RV1*%
X145193999Y-87804000D02*
G75*
G03*
X145193387Y-84834798I-2913999J1484000D01*
G01*
X139188000Y-87384000D02*
G75*
G03*
X143763968Y-89233829I3092000J1064000D01*
G01*
X143765000Y-83406000D02*
G75*
G03*
X142223137Y-83049925I-1485000J-2914000D01*
G01*
X142280000Y-83050000D02*
G75*
G03*
X139188154Y-85255392I0J-3270000D01*
G01*
%TO.C,R2*%
X114300000Y-87400000D02*
X114300000Y-88170000D01*
X115670000Y-88170000D02*
X112930000Y-88170000D01*
X112930000Y-88170000D02*
X112930000Y-94710000D01*
X115670000Y-94710000D02*
X115670000Y-88170000D01*
X112930000Y-94710000D02*
X115670000Y-94710000D01*
X114300000Y-95480000D02*
X114300000Y-94710000D01*
%TO.C,R3*%
X119380000Y-87400000D02*
X119380000Y-88170000D01*
X120750000Y-88170000D02*
X118010000Y-88170000D01*
X118010000Y-88170000D02*
X118010000Y-94710000D01*
X120750000Y-94710000D02*
X120750000Y-88170000D01*
X118010000Y-94710000D02*
X120750000Y-94710000D01*
X119380000Y-95480000D02*
X119380000Y-94710000D01*
%TO.C,U2*%
X149810000Y-89000000D02*
X160090000Y-89000000D01*
X160090000Y-89000000D02*
X160090000Y-83700000D01*
X149810000Y-87350000D02*
X149810000Y-89000000D01*
X149810000Y-83700000D02*
X149810000Y-85350000D01*
X160090000Y-83700000D02*
X149810000Y-83700000D01*
X149810000Y-87350000D02*
G75*
G03*
X149810000Y-85350000I0J1000000D01*
G01*
%TO.C,R1*%
X109220000Y-95480000D02*
X109220000Y-94710000D01*
X107850000Y-94710000D02*
X110590000Y-94710000D01*
X110590000Y-94710000D02*
X110590000Y-88170000D01*
X107850000Y-88170000D02*
X107850000Y-94710000D01*
X110590000Y-88170000D02*
X107850000Y-88170000D01*
X109220000Y-87400000D02*
X109220000Y-88170000D01*
%TO.C,D1*%
X136165000Y-67290000D02*
X133075000Y-67290000D01*
X134619538Y-72839999D02*
G75*
G03*
X136164830Y-67290001I462J2989999D01*
G01*
X133075170Y-67290000D02*
G75*
G03*
X134620462Y-72840000I1544830J-2560000D01*
G01*
X137120000Y-69850000D02*
G75*
G03*
X137120000Y-69850000I-2500000J0D01*
G01*
%TO.C,R5*%
X131040000Y-104140000D02*
X130270000Y-104140000D01*
X130270000Y-105510000D02*
X130270000Y-102770000D01*
X130270000Y-102770000D02*
X123730000Y-102770000D01*
X123730000Y-105510000D02*
X130270000Y-105510000D01*
X123730000Y-102770000D02*
X123730000Y-105510000D01*
X122960000Y-104140000D02*
X123730000Y-104140000D01*
%TO.C,C6*%
X159034775Y-75135000D02*
X158534775Y-75135000D01*
X158784775Y-75385000D02*
X158784775Y-74885000D01*
X156230000Y-76240000D02*
X156230000Y-71080000D01*
X156190000Y-76240000D02*
X156190000Y-71080000D01*
X156150000Y-76239000D02*
X156150000Y-71081000D01*
X156110000Y-76238000D02*
X156110000Y-71082000D01*
X156070000Y-76236000D02*
X156070000Y-71084000D01*
X156030000Y-76233000D02*
X156030000Y-71087000D01*
X155990000Y-76229000D02*
X155990000Y-74700000D01*
X155990000Y-72620000D02*
X155990000Y-71091000D01*
X155950000Y-76225000D02*
X155950000Y-74700000D01*
X155950000Y-72620000D02*
X155950000Y-71095000D01*
X155910000Y-76221000D02*
X155910000Y-74700000D01*
X155910000Y-72620000D02*
X155910000Y-71099000D01*
X155870000Y-76216000D02*
X155870000Y-74700000D01*
X155870000Y-72620000D02*
X155870000Y-71104000D01*
X155830000Y-76210000D02*
X155830000Y-74700000D01*
X155830000Y-72620000D02*
X155830000Y-71110000D01*
X155790000Y-76203000D02*
X155790000Y-74700000D01*
X155790000Y-72620000D02*
X155790000Y-71117000D01*
X155750000Y-76196000D02*
X155750000Y-74700000D01*
X155750000Y-72620000D02*
X155750000Y-71124000D01*
X155710000Y-76188000D02*
X155710000Y-74700000D01*
X155710000Y-72620000D02*
X155710000Y-71132000D01*
X155670000Y-76180000D02*
X155670000Y-74700000D01*
X155670000Y-72620000D02*
X155670000Y-71140000D01*
X155630000Y-76171000D02*
X155630000Y-74700000D01*
X155630000Y-72620000D02*
X155630000Y-71149000D01*
X155590000Y-76161000D02*
X155590000Y-74700000D01*
X155590000Y-72620000D02*
X155590000Y-71159000D01*
X155550000Y-76151000D02*
X155550000Y-74700000D01*
X155550000Y-72620000D02*
X155550000Y-71169000D01*
X155509000Y-76140000D02*
X155509000Y-74700000D01*
X155509000Y-72620000D02*
X155509000Y-71180000D01*
X155469000Y-76128000D02*
X155469000Y-74700000D01*
X155469000Y-72620000D02*
X155469000Y-71192000D01*
X155429000Y-76115000D02*
X155429000Y-74700000D01*
X155429000Y-72620000D02*
X155429000Y-71205000D01*
X155389000Y-76102000D02*
X155389000Y-74700000D01*
X155389000Y-72620000D02*
X155389000Y-71218000D01*
X155349000Y-76088000D02*
X155349000Y-74700000D01*
X155349000Y-72620000D02*
X155349000Y-71232000D01*
X155309000Y-76074000D02*
X155309000Y-74700000D01*
X155309000Y-72620000D02*
X155309000Y-71246000D01*
X155269000Y-76058000D02*
X155269000Y-74700000D01*
X155269000Y-72620000D02*
X155269000Y-71262000D01*
X155229000Y-76042000D02*
X155229000Y-74700000D01*
X155229000Y-72620000D02*
X155229000Y-71278000D01*
X155189000Y-76025000D02*
X155189000Y-74700000D01*
X155189000Y-72620000D02*
X155189000Y-71295000D01*
X155149000Y-76008000D02*
X155149000Y-74700000D01*
X155149000Y-72620000D02*
X155149000Y-71312000D01*
X155109000Y-75989000D02*
X155109000Y-74700000D01*
X155109000Y-72620000D02*
X155109000Y-71331000D01*
X155069000Y-75970000D02*
X155069000Y-74700000D01*
X155069000Y-72620000D02*
X155069000Y-71350000D01*
X155029000Y-75950000D02*
X155029000Y-74700000D01*
X155029000Y-72620000D02*
X155029000Y-71370000D01*
X154989000Y-75928000D02*
X154989000Y-74700000D01*
X154989000Y-72620000D02*
X154989000Y-71392000D01*
X154949000Y-75907000D02*
X154949000Y-74700000D01*
X154949000Y-72620000D02*
X154949000Y-71413000D01*
X154909000Y-75884000D02*
X154909000Y-74700000D01*
X154909000Y-72620000D02*
X154909000Y-71436000D01*
X154869000Y-75860000D02*
X154869000Y-74700000D01*
X154869000Y-72620000D02*
X154869000Y-71460000D01*
X154829000Y-75835000D02*
X154829000Y-74700000D01*
X154829000Y-72620000D02*
X154829000Y-71485000D01*
X154789000Y-75809000D02*
X154789000Y-74700000D01*
X154789000Y-72620000D02*
X154789000Y-71511000D01*
X154749000Y-75782000D02*
X154749000Y-74700000D01*
X154749000Y-72620000D02*
X154749000Y-71538000D01*
X154709000Y-75755000D02*
X154709000Y-74700000D01*
X154709000Y-72620000D02*
X154709000Y-71565000D01*
X154669000Y-75725000D02*
X154669000Y-74700000D01*
X154669000Y-72620000D02*
X154669000Y-71595000D01*
X154629000Y-75695000D02*
X154629000Y-74700000D01*
X154629000Y-72620000D02*
X154629000Y-71625000D01*
X154589000Y-75664000D02*
X154589000Y-74700000D01*
X154589000Y-72620000D02*
X154589000Y-71656000D01*
X154549000Y-75631000D02*
X154549000Y-74700000D01*
X154549000Y-72620000D02*
X154549000Y-71689000D01*
X154509000Y-75597000D02*
X154509000Y-74700000D01*
X154509000Y-72620000D02*
X154509000Y-71723000D01*
X154469000Y-75561000D02*
X154469000Y-74700000D01*
X154469000Y-72620000D02*
X154469000Y-71759000D01*
X154429000Y-75524000D02*
X154429000Y-74700000D01*
X154429000Y-72620000D02*
X154429000Y-71796000D01*
X154389000Y-75486000D02*
X154389000Y-74700000D01*
X154389000Y-72620000D02*
X154389000Y-71834000D01*
X154349000Y-75445000D02*
X154349000Y-74700000D01*
X154349000Y-72620000D02*
X154349000Y-71875000D01*
X154309000Y-75403000D02*
X154309000Y-74700000D01*
X154309000Y-72620000D02*
X154309000Y-71917000D01*
X154269000Y-75359000D02*
X154269000Y-74700000D01*
X154269000Y-72620000D02*
X154269000Y-71961000D01*
X154229000Y-75313000D02*
X154229000Y-74700000D01*
X154229000Y-72620000D02*
X154229000Y-72007000D01*
X154189000Y-75265000D02*
X154189000Y-74700000D01*
X154189000Y-72620000D02*
X154189000Y-72055000D01*
X154149000Y-75214000D02*
X154149000Y-74700000D01*
X154149000Y-72620000D02*
X154149000Y-72106000D01*
X154109000Y-75160000D02*
X154109000Y-74700000D01*
X154109000Y-72620000D02*
X154109000Y-72160000D01*
X154069000Y-75103000D02*
X154069000Y-74700000D01*
X154069000Y-72620000D02*
X154069000Y-72217000D01*
X154029000Y-75043000D02*
X154029000Y-74700000D01*
X154029000Y-72620000D02*
X154029000Y-72277000D01*
X153989000Y-74979000D02*
X153989000Y-74700000D01*
X153989000Y-72620000D02*
X153989000Y-72341000D01*
X153949000Y-74911000D02*
X153949000Y-74700000D01*
X153949000Y-72620000D02*
X153949000Y-72409000D01*
X153909000Y-74838000D02*
X153909000Y-72482000D01*
X153869000Y-74758000D02*
X153869000Y-72562000D01*
X153829000Y-74671000D02*
X153829000Y-72649000D01*
X153789000Y-74575000D02*
X153789000Y-72745000D01*
X153749000Y-74465000D02*
X153749000Y-72855000D01*
X153709000Y-74337000D02*
X153709000Y-72983000D01*
X153669000Y-74178000D02*
X153669000Y-73142000D01*
X153629000Y-73944000D02*
X153629000Y-73376000D01*
X158850000Y-73660000D02*
G75*
G03*
X158850000Y-73660000I-2620000J0D01*
G01*
%TO.C,C4*%
X140550354Y-68245000D02*
X141550354Y-68245000D01*
X141050354Y-67745000D02*
X141050354Y-68745000D01*
X146030000Y-66040000D02*
X146030000Y-76200000D01*
X146070000Y-66040000D02*
X146070000Y-76200000D01*
X146110000Y-66040000D02*
X146110000Y-76200000D01*
X146150000Y-66041000D02*
X146150000Y-76199000D01*
X146190000Y-66042000D02*
X146190000Y-76198000D01*
X146230000Y-66043000D02*
X146230000Y-76197000D01*
X146270000Y-66045000D02*
X146270000Y-70080000D01*
X146270000Y-72160000D02*
X146270000Y-76195000D01*
X146310000Y-66047000D02*
X146310000Y-70080000D01*
X146310000Y-72160000D02*
X146310000Y-76193000D01*
X146350000Y-66050000D02*
X146350000Y-70080000D01*
X146350000Y-72160000D02*
X146350000Y-76190000D01*
X146390000Y-66052000D02*
X146390000Y-70080000D01*
X146390000Y-72160000D02*
X146390000Y-76188000D01*
X146430000Y-66055000D02*
X146430000Y-70080000D01*
X146430000Y-72160000D02*
X146430000Y-76185000D01*
X146470000Y-66058000D02*
X146470000Y-70080000D01*
X146470000Y-72160000D02*
X146470000Y-76182000D01*
X146510000Y-66062000D02*
X146510000Y-70080000D01*
X146510000Y-72160000D02*
X146510000Y-76178000D01*
X146550000Y-66066000D02*
X146550000Y-70080000D01*
X146550000Y-72160000D02*
X146550000Y-76174000D01*
X146590000Y-66070000D02*
X146590000Y-70080000D01*
X146590000Y-72160000D02*
X146590000Y-76170000D01*
X146630000Y-66075000D02*
X146630000Y-70080000D01*
X146630000Y-72160000D02*
X146630000Y-76165000D01*
X146670000Y-66080000D02*
X146670000Y-70080000D01*
X146670000Y-72160000D02*
X146670000Y-76160000D01*
X146710000Y-66085000D02*
X146710000Y-70080000D01*
X146710000Y-72160000D02*
X146710000Y-76155000D01*
X146751000Y-66090000D02*
X146751000Y-70080000D01*
X146751000Y-72160000D02*
X146751000Y-76150000D01*
X146791000Y-66096000D02*
X146791000Y-70080000D01*
X146791000Y-72160000D02*
X146791000Y-76144000D01*
X146831000Y-66102000D02*
X146831000Y-70080000D01*
X146831000Y-72160000D02*
X146831000Y-76138000D01*
X146871000Y-66109000D02*
X146871000Y-70080000D01*
X146871000Y-72160000D02*
X146871000Y-76131000D01*
X146911000Y-66116000D02*
X146911000Y-70080000D01*
X146911000Y-72160000D02*
X146911000Y-76124000D01*
X146951000Y-66123000D02*
X146951000Y-70080000D01*
X146951000Y-72160000D02*
X146951000Y-76117000D01*
X146991000Y-66130000D02*
X146991000Y-70080000D01*
X146991000Y-72160000D02*
X146991000Y-76110000D01*
X147031000Y-66138000D02*
X147031000Y-70080000D01*
X147031000Y-72160000D02*
X147031000Y-76102000D01*
X147071000Y-66146000D02*
X147071000Y-70080000D01*
X147071000Y-72160000D02*
X147071000Y-76094000D01*
X147111000Y-66155000D02*
X147111000Y-70080000D01*
X147111000Y-72160000D02*
X147111000Y-76085000D01*
X147151000Y-66164000D02*
X147151000Y-70080000D01*
X147151000Y-72160000D02*
X147151000Y-76076000D01*
X147191000Y-66173000D02*
X147191000Y-70080000D01*
X147191000Y-72160000D02*
X147191000Y-76067000D01*
X147231000Y-66182000D02*
X147231000Y-70080000D01*
X147231000Y-72160000D02*
X147231000Y-76058000D01*
X147271000Y-66192000D02*
X147271000Y-70080000D01*
X147271000Y-72160000D02*
X147271000Y-76048000D01*
X147311000Y-66202000D02*
X147311000Y-70080000D01*
X147311000Y-72160000D02*
X147311000Y-76038000D01*
X147351000Y-66213000D02*
X147351000Y-70080000D01*
X147351000Y-72160000D02*
X147351000Y-76027000D01*
X147391000Y-66223000D02*
X147391000Y-70080000D01*
X147391000Y-72160000D02*
X147391000Y-76017000D01*
X147431000Y-66235000D02*
X147431000Y-70080000D01*
X147431000Y-72160000D02*
X147431000Y-76005000D01*
X147471000Y-66246000D02*
X147471000Y-70080000D01*
X147471000Y-72160000D02*
X147471000Y-75994000D01*
X147511000Y-66258000D02*
X147511000Y-70080000D01*
X147511000Y-72160000D02*
X147511000Y-75982000D01*
X147551000Y-66270000D02*
X147551000Y-70080000D01*
X147551000Y-72160000D02*
X147551000Y-75970000D01*
X147591000Y-66283000D02*
X147591000Y-70080000D01*
X147591000Y-72160000D02*
X147591000Y-75957000D01*
X147631000Y-66296000D02*
X147631000Y-70080000D01*
X147631000Y-72160000D02*
X147631000Y-75944000D01*
X147671000Y-66309000D02*
X147671000Y-70080000D01*
X147671000Y-72160000D02*
X147671000Y-75931000D01*
X147711000Y-66323000D02*
X147711000Y-70080000D01*
X147711000Y-72160000D02*
X147711000Y-75917000D01*
X147751000Y-66337000D02*
X147751000Y-70080000D01*
X147751000Y-72160000D02*
X147751000Y-75903000D01*
X147791000Y-66352000D02*
X147791000Y-70080000D01*
X147791000Y-72160000D02*
X147791000Y-75888000D01*
X147831000Y-66366000D02*
X147831000Y-70080000D01*
X147831000Y-72160000D02*
X147831000Y-75874000D01*
X147871000Y-66382000D02*
X147871000Y-70080000D01*
X147871000Y-72160000D02*
X147871000Y-75858000D01*
X147911000Y-66397000D02*
X147911000Y-70080000D01*
X147911000Y-72160000D02*
X147911000Y-75843000D01*
X147951000Y-66413000D02*
X147951000Y-70080000D01*
X147951000Y-72160000D02*
X147951000Y-75827000D01*
X147991000Y-66430000D02*
X147991000Y-70080000D01*
X147991000Y-72160000D02*
X147991000Y-75810000D01*
X148031000Y-66446000D02*
X148031000Y-70080000D01*
X148031000Y-72160000D02*
X148031000Y-75794000D01*
X148071000Y-66463000D02*
X148071000Y-70080000D01*
X148071000Y-72160000D02*
X148071000Y-75777000D01*
X148111000Y-66481000D02*
X148111000Y-70080000D01*
X148111000Y-72160000D02*
X148111000Y-75759000D01*
X148151000Y-66499000D02*
X148151000Y-70080000D01*
X148151000Y-72160000D02*
X148151000Y-75741000D01*
X148191000Y-66517000D02*
X148191000Y-70080000D01*
X148191000Y-72160000D02*
X148191000Y-75723000D01*
X148231000Y-66536000D02*
X148231000Y-70080000D01*
X148231000Y-72160000D02*
X148231000Y-75704000D01*
X148271000Y-66556000D02*
X148271000Y-70080000D01*
X148271000Y-72160000D02*
X148271000Y-75684000D01*
X148311000Y-66575000D02*
X148311000Y-70080000D01*
X148311000Y-72160000D02*
X148311000Y-75665000D01*
X148351000Y-66595000D02*
X148351000Y-75645000D01*
X148391000Y-66616000D02*
X148391000Y-75624000D01*
X148431000Y-66637000D02*
X148431000Y-75603000D01*
X148471000Y-66658000D02*
X148471000Y-75582000D01*
X148511000Y-66680000D02*
X148511000Y-75560000D01*
X148551000Y-66703000D02*
X148551000Y-75537000D01*
X148591000Y-66725000D02*
X148591000Y-75515000D01*
X148631000Y-66749000D02*
X148631000Y-75491000D01*
X148671000Y-66773000D02*
X148671000Y-75467000D01*
X148711000Y-66797000D02*
X148711000Y-75443000D01*
X148751000Y-66822000D02*
X148751000Y-75418000D01*
X148791000Y-66847000D02*
X148791000Y-75393000D01*
X148831000Y-66873000D02*
X148831000Y-75367000D01*
X148871000Y-66899000D02*
X148871000Y-75341000D01*
X148911000Y-66926000D02*
X148911000Y-75314000D01*
X148951000Y-66954000D02*
X148951000Y-75286000D01*
X148991000Y-66982000D02*
X148991000Y-75258000D01*
X149031000Y-67010000D02*
X149031000Y-75230000D01*
X149071000Y-67040000D02*
X149071000Y-75200000D01*
X149111000Y-67070000D02*
X149111000Y-75170000D01*
X149151000Y-67100000D02*
X149151000Y-75140000D01*
X149191000Y-67131000D02*
X149191000Y-75109000D01*
X149231000Y-67163000D02*
X149231000Y-75077000D01*
X149271000Y-67195000D02*
X149271000Y-75045000D01*
X149311000Y-67228000D02*
X149311000Y-75012000D01*
X149351000Y-67262000D02*
X149351000Y-74978000D01*
X149391000Y-67296000D02*
X149391000Y-74944000D01*
X149431000Y-67331000D02*
X149431000Y-74909000D01*
X149471000Y-67367000D02*
X149471000Y-74873000D01*
X149511000Y-67404000D02*
X149511000Y-74836000D01*
X149551000Y-67441000D02*
X149551000Y-74799000D01*
X149591000Y-67480000D02*
X149591000Y-74760000D01*
X149631000Y-67519000D02*
X149631000Y-74721000D01*
X149671000Y-67559000D02*
X149671000Y-74681000D01*
X149711000Y-67600000D02*
X149711000Y-74640000D01*
X149751000Y-67642000D02*
X149751000Y-74598000D01*
X149791000Y-67684000D02*
X149791000Y-74556000D01*
X149831000Y-67728000D02*
X149831000Y-74512000D01*
X149871000Y-67773000D02*
X149871000Y-74467000D01*
X149911000Y-67819000D02*
X149911000Y-74421000D01*
X149951000Y-67866000D02*
X149951000Y-74374000D01*
X149991000Y-67914000D02*
X149991000Y-74326000D01*
X150031000Y-67964000D02*
X150031000Y-74276000D01*
X150071000Y-68014000D02*
X150071000Y-74226000D01*
X150111000Y-68066000D02*
X150111000Y-74174000D01*
X150151000Y-68120000D02*
X150151000Y-74120000D01*
X150191000Y-68175000D02*
X150191000Y-74065000D01*
X150231000Y-68231000D02*
X150231000Y-74009000D01*
X150271000Y-68290000D02*
X150271000Y-73950000D01*
X150311000Y-68350000D02*
X150311000Y-73890000D01*
X150351000Y-68411000D02*
X150351000Y-73829000D01*
X150391000Y-68475000D02*
X150391000Y-73765000D01*
X150431000Y-68541000D02*
X150431000Y-73699000D01*
X150471000Y-68610000D02*
X150471000Y-73630000D01*
X150511000Y-68681000D02*
X150511000Y-73559000D01*
X150551000Y-68755000D02*
X150551000Y-73485000D01*
X150591000Y-68831000D02*
X150591000Y-73409000D01*
X150631000Y-68911000D02*
X150631000Y-73329000D01*
X150671000Y-68995000D02*
X150671000Y-73245000D01*
X150711000Y-69083000D02*
X150711000Y-73157000D01*
X150751000Y-69176000D02*
X150751000Y-73064000D01*
X150791000Y-69274000D02*
X150791000Y-72966000D01*
X150831000Y-69378000D02*
X150831000Y-72862000D01*
X150871000Y-69490000D02*
X150871000Y-72750000D01*
X150911000Y-69610000D02*
X150911000Y-72630000D01*
X150951000Y-69742000D02*
X150951000Y-72498000D01*
X150991000Y-69890000D02*
X150991000Y-72350000D01*
X151031000Y-70058000D02*
X151031000Y-72182000D01*
X151071000Y-70258000D02*
X151071000Y-71982000D01*
X151111000Y-70521000D02*
X151111000Y-71719000D01*
X151150000Y-71120000D02*
G75*
G03*
X151150000Y-71120000I-5120000J0D01*
G01*
%TO.C,C1*%
X107850000Y-79910000D02*
X107850000Y-82650000D01*
X107850000Y-79910000D02*
X113090000Y-79910000D01*
X107850000Y-82650000D02*
X113090000Y-82650000D01*
X113090000Y-79910000D02*
X113090000Y-82650000D01*
%TO.C,J1*%
X110490000Y-102810000D02*
X107890000Y-102810000D01*
X110490000Y-102810000D02*
X110490000Y-105470000D01*
X107890000Y-102810000D02*
X107890000Y-105470000D01*
X113090000Y-104140000D02*
X113090000Y-105470000D01*
X113090000Y-105470000D02*
X111760000Y-105470000D01*
X110490000Y-105470000D02*
X107890000Y-105470000D01*
%TO.C,C7*%
X166470000Y-82450000D02*
X163730000Y-82450000D01*
X166470000Y-82450000D02*
X166470000Y-87690000D01*
X163730000Y-82450000D02*
X163730000Y-87690000D01*
X166470000Y-87690000D02*
X163730000Y-87690000D01*
%TO.C,C3*%
X123090000Y-67210000D02*
X123090000Y-69950000D01*
X123090000Y-67210000D02*
X128330000Y-67210000D01*
X123090000Y-69950000D02*
X128330000Y-69950000D01*
X128330000Y-67210000D02*
X128330000Y-69950000D01*
%TO.C,R6*%
X164060000Y-96520000D02*
X163290000Y-96520000D01*
X163290000Y-97890000D02*
X163290000Y-95150000D01*
X163290000Y-95150000D02*
X156750000Y-95150000D01*
X156750000Y-97890000D02*
X163290000Y-97890000D01*
X156750000Y-95150000D02*
X156750000Y-97890000D01*
X155980000Y-96520000D02*
X156750000Y-96520000D01*
%TO.C,J2*%
X161230000Y-69910000D02*
X161230000Y-68580000D01*
X162560000Y-69910000D02*
X161230000Y-69910000D01*
X163830000Y-69910000D02*
X166430000Y-69910000D01*
X163830000Y-69910000D02*
X163830000Y-67250000D01*
X166430000Y-69910000D02*
X166430000Y-67250000D01*
X163830000Y-67250000D02*
X166430000Y-67250000D01*
%TO.C,C5*%
X161230000Y-74830000D02*
X161230000Y-77570000D01*
X161230000Y-74830000D02*
X166470000Y-74830000D01*
X161230000Y-77570000D02*
X166470000Y-77570000D01*
X166470000Y-74830000D02*
X166470000Y-77570000D01*
%TO.C,U1*%
X124410000Y-89000000D02*
X134690000Y-89000000D01*
X134690000Y-89000000D02*
X134690000Y-83700000D01*
X124410000Y-87350000D02*
X124410000Y-89000000D01*
X124410000Y-83700000D02*
X124410000Y-85350000D01*
X134690000Y-83700000D02*
X124410000Y-83700000D01*
X124410000Y-87350000D02*
G75*
G03*
X124410000Y-85350000I0J1000000D01*
G01*
%TO.C,C8*%
X140550354Y-98725000D02*
X141550354Y-98725000D01*
X141050354Y-98225000D02*
X141050354Y-99225000D01*
X146030000Y-96520000D02*
X146030000Y-106680000D01*
X146070000Y-96520000D02*
X146070000Y-106680000D01*
X146110000Y-96520000D02*
X146110000Y-106680000D01*
X146150000Y-96521000D02*
X146150000Y-106679000D01*
X146190000Y-96522000D02*
X146190000Y-106678000D01*
X146230000Y-96523000D02*
X146230000Y-106677000D01*
X146270000Y-96525000D02*
X146270000Y-100560000D01*
X146270000Y-102640000D02*
X146270000Y-106675000D01*
X146310000Y-96527000D02*
X146310000Y-100560000D01*
X146310000Y-102640000D02*
X146310000Y-106673000D01*
X146350000Y-96530000D02*
X146350000Y-100560000D01*
X146350000Y-102640000D02*
X146350000Y-106670000D01*
X146390000Y-96532000D02*
X146390000Y-100560000D01*
X146390000Y-102640000D02*
X146390000Y-106668000D01*
X146430000Y-96535000D02*
X146430000Y-100560000D01*
X146430000Y-102640000D02*
X146430000Y-106665000D01*
X146470000Y-96538000D02*
X146470000Y-100560000D01*
X146470000Y-102640000D02*
X146470000Y-106662000D01*
X146510000Y-96542000D02*
X146510000Y-100560000D01*
X146510000Y-102640000D02*
X146510000Y-106658000D01*
X146550000Y-96546000D02*
X146550000Y-100560000D01*
X146550000Y-102640000D02*
X146550000Y-106654000D01*
X146590000Y-96550000D02*
X146590000Y-100560000D01*
X146590000Y-102640000D02*
X146590000Y-106650000D01*
X146630000Y-96555000D02*
X146630000Y-100560000D01*
X146630000Y-102640000D02*
X146630000Y-106645000D01*
X146670000Y-96560000D02*
X146670000Y-100560000D01*
X146670000Y-102640000D02*
X146670000Y-106640000D01*
X146710000Y-96565000D02*
X146710000Y-100560000D01*
X146710000Y-102640000D02*
X146710000Y-106635000D01*
X146751000Y-96570000D02*
X146751000Y-100560000D01*
X146751000Y-102640000D02*
X146751000Y-106630000D01*
X146791000Y-96576000D02*
X146791000Y-100560000D01*
X146791000Y-102640000D02*
X146791000Y-106624000D01*
X146831000Y-96582000D02*
X146831000Y-100560000D01*
X146831000Y-102640000D02*
X146831000Y-106618000D01*
X146871000Y-96589000D02*
X146871000Y-100560000D01*
X146871000Y-102640000D02*
X146871000Y-106611000D01*
X146911000Y-96596000D02*
X146911000Y-100560000D01*
X146911000Y-102640000D02*
X146911000Y-106604000D01*
X146951000Y-96603000D02*
X146951000Y-100560000D01*
X146951000Y-102640000D02*
X146951000Y-106597000D01*
X146991000Y-96610000D02*
X146991000Y-100560000D01*
X146991000Y-102640000D02*
X146991000Y-106590000D01*
X147031000Y-96618000D02*
X147031000Y-100560000D01*
X147031000Y-102640000D02*
X147031000Y-106582000D01*
X147071000Y-96626000D02*
X147071000Y-100560000D01*
X147071000Y-102640000D02*
X147071000Y-106574000D01*
X147111000Y-96635000D02*
X147111000Y-100560000D01*
X147111000Y-102640000D02*
X147111000Y-106565000D01*
X147151000Y-96644000D02*
X147151000Y-100560000D01*
X147151000Y-102640000D02*
X147151000Y-106556000D01*
X147191000Y-96653000D02*
X147191000Y-100560000D01*
X147191000Y-102640000D02*
X147191000Y-106547000D01*
X147231000Y-96662000D02*
X147231000Y-100560000D01*
X147231000Y-102640000D02*
X147231000Y-106538000D01*
X147271000Y-96672000D02*
X147271000Y-100560000D01*
X147271000Y-102640000D02*
X147271000Y-106528000D01*
X147311000Y-96682000D02*
X147311000Y-100560000D01*
X147311000Y-102640000D02*
X147311000Y-106518000D01*
X147351000Y-96693000D02*
X147351000Y-100560000D01*
X147351000Y-102640000D02*
X147351000Y-106507000D01*
X147391000Y-96703000D02*
X147391000Y-100560000D01*
X147391000Y-102640000D02*
X147391000Y-106497000D01*
X147431000Y-96715000D02*
X147431000Y-100560000D01*
X147431000Y-102640000D02*
X147431000Y-106485000D01*
X147471000Y-96726000D02*
X147471000Y-100560000D01*
X147471000Y-102640000D02*
X147471000Y-106474000D01*
X147511000Y-96738000D02*
X147511000Y-100560000D01*
X147511000Y-102640000D02*
X147511000Y-106462000D01*
X147551000Y-96750000D02*
X147551000Y-100560000D01*
X147551000Y-102640000D02*
X147551000Y-106450000D01*
X147591000Y-96763000D02*
X147591000Y-100560000D01*
X147591000Y-102640000D02*
X147591000Y-106437000D01*
X147631000Y-96776000D02*
X147631000Y-100560000D01*
X147631000Y-102640000D02*
X147631000Y-106424000D01*
X147671000Y-96789000D02*
X147671000Y-100560000D01*
X147671000Y-102640000D02*
X147671000Y-106411000D01*
X147711000Y-96803000D02*
X147711000Y-100560000D01*
X147711000Y-102640000D02*
X147711000Y-106397000D01*
X147751000Y-96817000D02*
X147751000Y-100560000D01*
X147751000Y-102640000D02*
X147751000Y-106383000D01*
X147791000Y-96832000D02*
X147791000Y-100560000D01*
X147791000Y-102640000D02*
X147791000Y-106368000D01*
X147831000Y-96846000D02*
X147831000Y-100560000D01*
X147831000Y-102640000D02*
X147831000Y-106354000D01*
X147871000Y-96862000D02*
X147871000Y-100560000D01*
X147871000Y-102640000D02*
X147871000Y-106338000D01*
X147911000Y-96877000D02*
X147911000Y-100560000D01*
X147911000Y-102640000D02*
X147911000Y-106323000D01*
X147951000Y-96893000D02*
X147951000Y-100560000D01*
X147951000Y-102640000D02*
X147951000Y-106307000D01*
X147991000Y-96910000D02*
X147991000Y-100560000D01*
X147991000Y-102640000D02*
X147991000Y-106290000D01*
X148031000Y-96926000D02*
X148031000Y-100560000D01*
X148031000Y-102640000D02*
X148031000Y-106274000D01*
X148071000Y-96943000D02*
X148071000Y-100560000D01*
X148071000Y-102640000D02*
X148071000Y-106257000D01*
X148111000Y-96961000D02*
X148111000Y-100560000D01*
X148111000Y-102640000D02*
X148111000Y-106239000D01*
X148151000Y-96979000D02*
X148151000Y-100560000D01*
X148151000Y-102640000D02*
X148151000Y-106221000D01*
X148191000Y-96997000D02*
X148191000Y-100560000D01*
X148191000Y-102640000D02*
X148191000Y-106203000D01*
X148231000Y-97016000D02*
X148231000Y-100560000D01*
X148231000Y-102640000D02*
X148231000Y-106184000D01*
X148271000Y-97036000D02*
X148271000Y-100560000D01*
X148271000Y-102640000D02*
X148271000Y-106164000D01*
X148311000Y-97055000D02*
X148311000Y-100560000D01*
X148311000Y-102640000D02*
X148311000Y-106145000D01*
X148351000Y-97075000D02*
X148351000Y-106125000D01*
X148391000Y-97096000D02*
X148391000Y-106104000D01*
X148431000Y-97117000D02*
X148431000Y-106083000D01*
X148471000Y-97138000D02*
X148471000Y-106062000D01*
X148511000Y-97160000D02*
X148511000Y-106040000D01*
X148551000Y-97183000D02*
X148551000Y-106017000D01*
X148591000Y-97205000D02*
X148591000Y-105995000D01*
X148631000Y-97229000D02*
X148631000Y-105971000D01*
X148671000Y-97253000D02*
X148671000Y-105947000D01*
X148711000Y-97277000D02*
X148711000Y-105923000D01*
X148751000Y-97302000D02*
X148751000Y-105898000D01*
X148791000Y-97327000D02*
X148791000Y-105873000D01*
X148831000Y-97353000D02*
X148831000Y-105847000D01*
X148871000Y-97379000D02*
X148871000Y-105821000D01*
X148911000Y-97406000D02*
X148911000Y-105794000D01*
X148951000Y-97434000D02*
X148951000Y-105766000D01*
X148991000Y-97462000D02*
X148991000Y-105738000D01*
X149031000Y-97490000D02*
X149031000Y-105710000D01*
X149071000Y-97520000D02*
X149071000Y-105680000D01*
X149111000Y-97550000D02*
X149111000Y-105650000D01*
X149151000Y-97580000D02*
X149151000Y-105620000D01*
X149191000Y-97611000D02*
X149191000Y-105589000D01*
X149231000Y-97643000D02*
X149231000Y-105557000D01*
X149271000Y-97675000D02*
X149271000Y-105525000D01*
X149311000Y-97708000D02*
X149311000Y-105492000D01*
X149351000Y-97742000D02*
X149351000Y-105458000D01*
X149391000Y-97776000D02*
X149391000Y-105424000D01*
X149431000Y-97811000D02*
X149431000Y-105389000D01*
X149471000Y-97847000D02*
X149471000Y-105353000D01*
X149511000Y-97884000D02*
X149511000Y-105316000D01*
X149551000Y-97921000D02*
X149551000Y-105279000D01*
X149591000Y-97960000D02*
X149591000Y-105240000D01*
X149631000Y-97999000D02*
X149631000Y-105201000D01*
X149671000Y-98039000D02*
X149671000Y-105161000D01*
X149711000Y-98080000D02*
X149711000Y-105120000D01*
X149751000Y-98122000D02*
X149751000Y-105078000D01*
X149791000Y-98164000D02*
X149791000Y-105036000D01*
X149831000Y-98208000D02*
X149831000Y-104992000D01*
X149871000Y-98253000D02*
X149871000Y-104947000D01*
X149911000Y-98299000D02*
X149911000Y-104901000D01*
X149951000Y-98346000D02*
X149951000Y-104854000D01*
X149991000Y-98394000D02*
X149991000Y-104806000D01*
X150031000Y-98444000D02*
X150031000Y-104756000D01*
X150071000Y-98494000D02*
X150071000Y-104706000D01*
X150111000Y-98546000D02*
X150111000Y-104654000D01*
X150151000Y-98600000D02*
X150151000Y-104600000D01*
X150191000Y-98655000D02*
X150191000Y-104545000D01*
X150231000Y-98711000D02*
X150231000Y-104489000D01*
X150271000Y-98770000D02*
X150271000Y-104430000D01*
X150311000Y-98830000D02*
X150311000Y-104370000D01*
X150351000Y-98891000D02*
X150351000Y-104309000D01*
X150391000Y-98955000D02*
X150391000Y-104245000D01*
X150431000Y-99021000D02*
X150431000Y-104179000D01*
X150471000Y-99090000D02*
X150471000Y-104110000D01*
X150511000Y-99161000D02*
X150511000Y-104039000D01*
X150551000Y-99235000D02*
X150551000Y-103965000D01*
X150591000Y-99311000D02*
X150591000Y-103889000D01*
X150631000Y-99391000D02*
X150631000Y-103809000D01*
X150671000Y-99475000D02*
X150671000Y-103725000D01*
X150711000Y-99563000D02*
X150711000Y-103637000D01*
X150751000Y-99656000D02*
X150751000Y-103544000D01*
X150791000Y-99754000D02*
X150791000Y-103446000D01*
X150831000Y-99858000D02*
X150831000Y-103342000D01*
X150871000Y-99970000D02*
X150871000Y-103230000D01*
X150911000Y-100090000D02*
X150911000Y-103110000D01*
X150951000Y-100222000D02*
X150951000Y-102978000D01*
X150991000Y-100370000D02*
X150991000Y-102830000D01*
X151031000Y-100538000D02*
X151031000Y-102662000D01*
X151071000Y-100738000D02*
X151071000Y-102462000D01*
X151111000Y-101001000D02*
X151111000Y-102199000D01*
X151150000Y-101600000D02*
G75*
G03*
X151150000Y-101600000I-5120000J0D01*
G01*
%TO.C,C2*%
X133450000Y-97890000D02*
X133450000Y-95150000D01*
X133450000Y-97890000D02*
X128210000Y-97890000D01*
X133450000Y-95150000D02*
X128210000Y-95150000D01*
X128210000Y-97890000D02*
X128210000Y-95150000D01*
%TO.C,R4*%
X120420000Y-78740000D02*
X121190000Y-78740000D01*
X121190000Y-77370000D02*
X121190000Y-80110000D01*
X121190000Y-80110000D02*
X127730000Y-80110000D01*
X127730000Y-77370000D02*
X121190000Y-77370000D01*
X127730000Y-80110000D02*
X127730000Y-77370000D01*
X128500000Y-78740000D02*
X127730000Y-78740000D01*
%TO.C,J3*%
X166430000Y-102810000D02*
X166430000Y-104140000D01*
X165100000Y-102810000D02*
X166430000Y-102810000D01*
X163830000Y-102810000D02*
X161230000Y-102810000D01*
X163830000Y-102810000D02*
X163830000Y-105470000D01*
X161230000Y-102810000D02*
X161230000Y-105470000D01*
X163830000Y-105470000D02*
X161230000Y-105470000D01*
%TO.C,J4*%
X107600000Y-65740000D02*
X106860000Y-65740000D01*
X106860000Y-65740000D02*
X106860000Y-66240000D01*
X117021000Y-65980000D02*
X107100000Y-65980000D01*
X117021000Y-65980000D02*
X117021000Y-76260000D01*
X114061000Y-65980000D02*
X114061000Y-76260000D01*
X109160000Y-65980000D02*
X109160000Y-76260000D01*
X107660000Y-65980000D02*
X107660000Y-76260000D01*
X107100000Y-65980000D02*
X107100000Y-76260000D01*
X110737000Y-72433000D02*
X110691000Y-72386000D01*
X110521000Y-72626000D02*
X110486000Y-72591000D01*
X113035000Y-74730000D02*
X112999000Y-74695000D01*
X112829000Y-74935000D02*
X112783000Y-74888000D01*
X117021000Y-76260000D02*
X107100000Y-76260000D01*
X112443999Y-67045001D02*
G75*
G03*
X111076958Y-67044574I-684000J-1534992D01*
G01*
X113294999Y-69263999D02*
G75*
G03*
X113295426Y-67896958I-1534992J684000D01*
G01*
X110225001Y-67896000D02*
G75*
G03*
X110079748Y-68608805I1535000J-683999D01*
G01*
X110080001Y-68580000D02*
G75*
G03*
X110225245Y-69263318I1679999J0D01*
G01*
X111076000Y-70115000D02*
G75*
G03*
X112443042Y-70115426I684000J1535000D01*
G01*
X113440000Y-73660000D02*
G75*
G03*
X113440000Y-73660000I-1680000J0D01*
G01*
%TO.C,R0*%
X120420000Y-73660000D02*
X121190000Y-73660000D01*
X121190000Y-72290000D02*
X121190000Y-75030000D01*
X121190000Y-75030000D02*
X127730000Y-75030000D01*
X127730000Y-72290000D02*
X121190000Y-72290000D01*
X127730000Y-75030000D02*
X127730000Y-72290000D01*
X128500000Y-73660000D02*
X127730000Y-73660000D01*
%TD*%
M02*
