%TF.GenerationSoftware,KiCad,Pcbnew,(6.0.1-0)*%
%TF.CreationDate,2022-05-03T14:29:39+09:00*%
%TF.ProjectId,mic_tester,6d69635f-7465-4737-9465-722e6b696361,rev?*%
%TF.SameCoordinates,Original*%
%TF.FileFunction,Soldermask,Bot*%
%TF.FilePolarity,Negative*%
%FSLAX46Y46*%
G04 Gerber Fmt 4.6, Leading zero omitted, Abs format (unit mm)*
G04 Created by KiCad (PCBNEW (6.0.1-0)) date 2022-05-03 14:29:39*
%MOMM*%
%LPD*%
G01*
G04 APERTURE LIST*
%ADD10C,1.620000*%
%ADD11C,1.600000*%
%ADD12O,1.600000X1.600000*%
%ADD13R,1.600000X1.600000*%
%ADD14R,1.800000X1.800000*%
%ADD15C,1.800000*%
%ADD16R,1.700000X1.700000*%
%ADD17O,1.700000X1.700000*%
%ADD18R,2.600000X2.600000*%
%ADD19C,2.600000*%
G04 APERTURE END LIST*
D10*
%TO.C,RV1*%
X144780000Y-83820000D03*
X139780000Y-86320000D03*
X144780000Y-88820000D03*
%TD*%
D11*
%TO.C,R2*%
X114300000Y-86360000D03*
D12*
X114300000Y-96520000D03*
%TD*%
D11*
%TO.C,R3*%
X119380000Y-86360000D03*
D12*
X119380000Y-96520000D03*
%TD*%
D13*
%TO.C,U2*%
X151140000Y-90160000D03*
D12*
X153680000Y-90160000D03*
X156220000Y-90160000D03*
X158760000Y-90160000D03*
X158760000Y-82540000D03*
X156220000Y-82540000D03*
X153680000Y-82540000D03*
X151140000Y-82540000D03*
%TD*%
D11*
%TO.C,R1*%
X109220000Y-96520000D03*
D12*
X109220000Y-86360000D03*
%TD*%
D14*
%TO.C,D1*%
X134620000Y-68580000D03*
D15*
X134620000Y-71120000D03*
%TD*%
D11*
%TO.C,R5*%
X132080000Y-104140000D03*
D12*
X121920000Y-104140000D03*
%TD*%
D13*
%TO.C,C6*%
X157480000Y-73660000D03*
D11*
X154980000Y-73660000D03*
%TD*%
D13*
%TO.C,C4*%
X144780000Y-71120000D03*
D11*
X147280000Y-71120000D03*
%TD*%
%TO.C,C1*%
X109220000Y-81280000D03*
X111720000Y-81280000D03*
%TD*%
D16*
%TO.C,J1*%
X111760000Y-104140000D03*
D17*
X109220000Y-104140000D03*
%TD*%
D11*
%TO.C,C7*%
X165100000Y-83820000D03*
X165100000Y-86320000D03*
%TD*%
%TO.C,C3*%
X124460000Y-68580000D03*
X126960000Y-68580000D03*
%TD*%
%TO.C,R6*%
X165100000Y-96520000D03*
D12*
X154940000Y-96520000D03*
%TD*%
D16*
%TO.C,J2*%
X162560000Y-68580000D03*
D17*
X165100000Y-68580000D03*
%TD*%
D11*
%TO.C,C5*%
X162600000Y-76200000D03*
X165100000Y-76200000D03*
%TD*%
D13*
%TO.C,U1*%
X125740000Y-90160000D03*
D12*
X128280000Y-90160000D03*
X130820000Y-90160000D03*
X133360000Y-90160000D03*
X133360000Y-82540000D03*
X130820000Y-82540000D03*
X128280000Y-82540000D03*
X125740000Y-82540000D03*
%TD*%
D13*
%TO.C,C8*%
X144780000Y-101600000D03*
D11*
X147280000Y-101600000D03*
%TD*%
%TO.C,C2*%
X132080000Y-96520000D03*
X129580000Y-96520000D03*
%TD*%
%TO.C,R4*%
X119380000Y-78740000D03*
D12*
X129540000Y-78740000D03*
%TD*%
D16*
%TO.C,J3*%
X165100000Y-104140000D03*
D17*
X162560000Y-104140000D03*
%TD*%
D18*
%TO.C,J4*%
X111760000Y-68580000D03*
D19*
X111760000Y-73660000D03*
%TD*%
D11*
%TO.C,R0*%
X119380000Y-73660000D03*
D12*
X129540000Y-73660000D03*
%TD*%
M02*
