%TF.GenerationSoftware,KiCad,Pcbnew,(6.99.0-1870-g5c4f49351d)*%
%TF.CreationDate,2022-05-12T17:00:07+09:00*%
%TF.ProjectId,mic_tester,6d69635f-7465-4737-9465-722e6b696361,rev?*%
%TF.SameCoordinates,Original*%
%TF.FileFunction,Soldermask,Top*%
%TF.FilePolarity,Negative*%
%FSLAX46Y46*%
G04 Gerber Fmt 4.6, Leading zero omitted, Abs format (unit mm)*
G04 Created by KiCad (PCBNEW (6.99.0-1870-g5c4f49351d)) date 2022-05-12 17:00:07*
%MOMM*%
%LPD*%
G01*
G04 APERTURE LIST*
%ADD10C,1.620000*%
%ADD11C,1.600000*%
%ADD12O,1.600000X1.600000*%
%ADD13R,1.600000X1.600000*%
%ADD14R,1.800000X1.800000*%
%ADD15C,1.800000*%
%ADD16R,1.700000X1.700000*%
%ADD17O,1.700000X1.700000*%
%ADD18R,2.600000X2.600000*%
%ADD19C,2.600000*%
G04 APERTURE END LIST*
D10*
%TO.C,RV1*%
X144780000Y-83820000D03*
X139780000Y-86320000D03*
X144780000Y-88820000D03*
%TD*%
D11*
%TO.C,R2*%
X114300000Y-86360000D03*
D12*
X114299999Y-96519999D03*
%TD*%
D11*
%TO.C,R3*%
X119380000Y-86360000D03*
D12*
X119379999Y-96519999D03*
%TD*%
D13*
%TO.C,U2*%
X151139999Y-90159999D03*
D12*
X153679999Y-90159999D03*
X156219999Y-90159999D03*
X158759999Y-90159999D03*
X158759999Y-82539999D03*
X156219999Y-82539999D03*
X153679999Y-82539999D03*
X151139999Y-82539999D03*
%TD*%
D11*
%TO.C,R1*%
X109220000Y-96520000D03*
D12*
X109219999Y-86359999D03*
%TD*%
D14*
%TO.C,D1*%
X134619999Y-68579999D03*
D15*
X134620000Y-71120000D03*
%TD*%
D11*
%TO.C,R5*%
X132080000Y-104140000D03*
D12*
X121919999Y-104139999D03*
%TD*%
D13*
%TO.C,C6*%
X157479999Y-73659999D03*
D11*
X154980000Y-73660000D03*
%TD*%
D13*
%TO.C,C4*%
X144779999Y-71119999D03*
D11*
X147280000Y-71120000D03*
%TD*%
%TO.C,C1*%
X109220000Y-81280000D03*
X111720000Y-81280000D03*
%TD*%
D16*
%TO.C,J1*%
X111759999Y-104139999D03*
D17*
X109219999Y-104139999D03*
%TD*%
D11*
%TO.C,C7*%
X165100000Y-83820000D03*
X165100000Y-86320000D03*
%TD*%
%TO.C,C3*%
X124460000Y-68580000D03*
X126960000Y-68580000D03*
%TD*%
%TO.C,R6*%
X165100000Y-96520000D03*
D12*
X154939999Y-96519999D03*
%TD*%
D16*
%TO.C,J2*%
X162559999Y-68579999D03*
D17*
X165099999Y-68579999D03*
%TD*%
D11*
%TO.C,C5*%
X162600000Y-76200000D03*
X165100000Y-76200000D03*
%TD*%
D13*
%TO.C,U1*%
X125739999Y-90159999D03*
D12*
X128279999Y-90159999D03*
X130819999Y-90159999D03*
X133359999Y-90159999D03*
X133359999Y-82539999D03*
X130819999Y-82539999D03*
X128279999Y-82539999D03*
X125739999Y-82539999D03*
%TD*%
D13*
%TO.C,C8*%
X144779999Y-101599999D03*
D11*
X147280000Y-101600000D03*
%TD*%
%TO.C,C2*%
X132080000Y-96520000D03*
X129580000Y-96520000D03*
%TD*%
%TO.C,R4*%
X119380000Y-78740000D03*
D12*
X129539999Y-78739999D03*
%TD*%
D16*
%TO.C,J3*%
X165099999Y-104139999D03*
D17*
X162559999Y-104139999D03*
%TD*%
D18*
%TO.C,J4*%
X111759999Y-68579999D03*
D19*
X111760000Y-73660000D03*
%TD*%
D11*
%TO.C,R0*%
X119380000Y-73660000D03*
D12*
X129539999Y-73659999D03*
%TD*%
M02*
